<svg xmlns="http://www.w3.org/2000/svg" viewBox="0 0 106 120.3"><defs><style>.cls-1{fill:#fff;}</style></defs><g id="圖層_2" data-name="圖層 2"><g id="圖層_1-2" data-name="圖層 1"><path d="M53,5A48,48,0,1,1,5,53,48,48,0,0,1,53,5m0-5a53,53,0,1,0,53,53A53,53,0,0,0,53,0Z"/><path class="cls-1" d="M42.3,34a.8.8,0,1,1,.8-.8A.79.79,0,0,1,42.3,34Z"/><path d="M42.3,33a.32.32,0,0,1,.3.3.3.3,0,1,1-.6,0,.32.32,0,0,1,.3-.3m0-1a1.3,1.3,0,1,0,1.3,1.3A1.32,1.32,0,0,0,42.3,32Z"/><path class="cls-1" d="M44.9,34a.8.8,0,0,1,0-1.6.74.74,0,0,1,.8.8C45.6,33.7,45.3,34,44.9,34Z"/><path d="M44.9,33a.32.32,0,0,1,.3.3.3.3,0,1,1-.3-.3m0-1a1.3,1.3,0,1,0,1.3,1.3A1.32,1.32,0,0,0,44.9,32Z"/><path class="cls-1" d="M42.3,39.1a.8.8,0,1,1,.8-.8A.86.86,0,0,1,42.3,39.1Z"/><path d="M42.3,38a.32.32,0,0,1,.3.3.3.3,0,1,1-.6,0,.32.32,0,0,1,.3-.3m0-1a1.3,1.3,0,1,0,1.3,1.3A1.32,1.32,0,0,0,42.3,37Z"/><path class="cls-1" d="M44.9,39.1a.8.8,0,0,1,0-1.6.74.74,0,0,1,.8.8C45.6,38.7,45.3,39.1,44.9,39.1Z"/><path d="M44.9,38a.32.32,0,0,1,.3.3.3.3,0,1,1-.3-.3m0-1a1.3,1.3,0,1,0,1.3,1.3A1.32,1.32,0,0,0,44.9,37Z"/><circle class="cls-1" cx="44.9" cy="43.4" r="0.8"/><path d="M44.9,43.1a.32.32,0,0,1,.3.3.3.3,0,1,1-.3-.3m0-1a1.3,1.3,0,1,0,1.3,1.3,1.32,1.32,0,0,0-1.3-1.3Z"/><path class="cls-1" d="M47.4,44.2a.79.79,0,0,1-.8-.8.74.74,0,0,1,.8-.8.8.8,0,0,1,0,1.6Z"/><path d="M47.4,43.1a.32.32,0,0,1,.3.3.3.3,0,1,1-.3-.3m0-1a1.3,1.3,0,1,0,1.3,1.3,1.32,1.32,0,0,0-1.3-1.3Z"/><circle class="cls-1" cx="49.9" cy="43.4" r="0.8"/><path d="M49.9,43.1a.32.32,0,0,1,.3.3.3.3,0,1,1-.6,0,.32.32,0,0,1,.3-.3m0-1a1.3,1.3,0,1,0,1.3,1.3,1.32,1.32,0,0,0-1.3-1.3Z"/><path class="cls-1" d="M44.9,46.7a.8.8,0,0,1,0-1.6.74.74,0,0,1,.8.8C45.6,46.4,45.3,46.7,44.9,46.7Z"/><path d="M44.9,45.7a.32.32,0,0,1,.3.3.3.3,0,1,1-.3-.3m0-1A1.3,1.3,0,1,0,46.2,46a1.32,1.32,0,0,0-1.3-1.3Z"/><path class="cls-1" d="M47.4,46.7a.8.8,0,1,1,.8-.8A.79.79,0,0,1,47.4,46.7Z"/><path d="M47.4,45.7a.32.32,0,0,1,.3.3.3.3,0,1,1-.3-.3m0-1A1.3,1.3,0,1,0,48.7,46a1.26,1.26,0,0,0-1.3-1.3Z"/><path class="cls-1" d="M49.9,46.7a.8.8,0,0,1,0-1.6.8.8,0,0,1,0,1.6Z"/><path d="M49.9,45.7a.32.32,0,0,1,.3.3.3.3,0,1,1-.6,0,.32.32,0,0,1,.3-.3m0-1A1.3,1.3,0,1,0,51.2,46a1.26,1.26,0,0,0-1.3-1.3Z"/><path class="cls-1" d="M44.9,41.6a.8.8,0,0,1,0-1.6.74.74,0,0,1,.8.8C45.6,41.3,45.3,41.6,44.9,41.6Z"/><path d="M44.9,40.6a.32.32,0,0,1,.3.3.3.3,0,1,1-.3-.3m0-1a1.3,1.3,0,1,0,1.3,1.3,1.32,1.32,0,0,0-1.3-1.3Z"/><path class="cls-1" d="M47.4,41.6a.8.8,0,1,1,.8-.8A.79.79,0,0,1,47.4,41.6Z"/><path d="M47.4,40.6a.32.32,0,0,1,.3.3.3.3,0,1,1-.3-.3m0-1a1.3,1.3,0,1,0,1.3,1.3,1.32,1.32,0,0,0-1.3-1.3Z"/><path class="cls-1" d="M49.9,41.6a.8.8,0,0,1,0-1.6.8.8,0,0,1,0,1.6Z"/><path d="M49.9,40.6a.32.32,0,0,1,.3.3.3.3,0,1,1-.6,0,.32.32,0,0,1,.3-.3m0-1a1.3,1.3,0,1,0,1.3,1.3,1.32,1.32,0,0,0-1.3-1.3Z"/><path class="cls-1" d="M52.5,41.6a.8.8,0,1,1,.8-.8C53.2,41.3,52.9,41.6,52.5,41.6Z"/><path d="M52.5,40.6a.32.32,0,0,1,.3.3.3.3,0,1,1-.3-.3m0-1a1.3,1.3,0,1,0,1.3,1.3,1.32,1.32,0,0,0-1.3-1.3Z"/><path class="cls-1" d="M55,41.6a.8.8,0,1,1,.8-.8A.79.79,0,0,1,55,41.6Z"/><path d="M55,40.6a.32.32,0,0,1,.3.3.3.3,0,1,1-.6,0,.32.32,0,0,1,.3-.3m0-1a1.3,1.3,0,1,0,1.3,1.3A1.32,1.32,0,0,0,55,39.6Z"/><path class="cls-1" d="M42.3,64.5a.79.79,0,0,1-.8-.8.74.74,0,0,1,.8-.8.8.8,0,1,1,0,1.6Z"/><path d="M42.3,63.4a.32.32,0,0,1,.3.3.3.3,0,1,1-.6,0,.32.32,0,0,1,.3-.3m0-1a1.3,1.3,0,1,0,1.3,1.3,1.32,1.32,0,0,0-1.3-1.3Z"/><circle class="cls-1" cx="44.9" cy="63.7" r="0.8"/><path d="M44.9,63.4a.32.32,0,0,1,.3.3.3.3,0,1,1-.3-.3m0-1a1.3,1.3,0,1,0,1.3,1.3,1.4,1.4,0,0,0-1.3-1.3Z"/><path class="cls-1" d="M47.4,61.9a.8.8,0,1,1,.8-.8A.79.79,0,0,1,47.4,61.9Z"/><path d="M47.4,60.9a.32.32,0,0,1,.3.3.3.3,0,1,1-.3-.3m0-1a1.3,1.3,0,1,0,1.3,1.3,1.32,1.32,0,0,0-1.3-1.3Z"/><path class="cls-1" d="M47.4,59.4a.8.8,0,1,1,.8-.8A.86.86,0,0,1,47.4,59.4Z"/><path d="M47.4,58.4a.32.32,0,0,1,.3.3.3.3,0,1,1-.3-.3m0-1a1.3,1.3,0,1,0,1.3,1.3,1.26,1.26,0,0,0-1.3-1.3Z"/><path class="cls-1" d="M47.4,56.9a.79.79,0,0,1-.8-.8.74.74,0,0,1,.8-.8.8.8,0,0,1,0,1.6Z"/><path d="M47.4,55.8a.32.32,0,0,1,.3.3.3.3,0,1,1-.3-.3m0-1a1.3,1.3,0,1,0,1.3,1.3,1.32,1.32,0,0,0-1.3-1.3Z"/><path class="cls-1" d="M60.1,64.5a.87.87,0,0,1-.8-.6.78.78,0,0,1,.6-.9h.2a.87.87,0,0,1,.8.6,1.27,1.27,0,0,1-.1.6.55.55,0,0,1-.5.3Z"/><path d="M60.1,63.4c.1,0,.2.1.3.2s-.1.3-.2.3h-.1c-.1,0-.2-.1-.3-.2s.1-.2.3-.3h0m0-1h-.3a1.26,1.26,0,0,0,.2,2.5h.3a1.27,1.27,0,0,0,1-1.5,1.19,1.19,0,0,0-1.2-1Z"/><path class="cls-1" d="M62.6,61.9a.8.8,0,1,1,.8-.8A.79.79,0,0,1,62.6,61.9Z"/><path d="M62.6,60.9a.32.32,0,0,1,.3.3.3.3,0,0,1-.6,0,.32.32,0,0,1,.3-.3m0-1a1.3,1.3,0,1,0,1.3,1.3,1.32,1.32,0,0,0-1.3-1.3Z"/><path class="cls-1" d="M62.6,59.4a.8.8,0,1,1,.8-.8A.86.86,0,0,1,62.6,59.4Z"/><path d="M62.6,58.4a.32.32,0,0,1,.3.3.3.3,0,0,1-.6,0,.32.32,0,0,1,.3-.3m0-1a1.3,1.3,0,1,0,1.3,1.3,1.26,1.26,0,0,0-1.3-1.3Z"/><path class="cls-1" d="M60.1,56.9a1,1,0,0,1-.7-.4,1.27,1.27,0,0,1-.1-.6,1,1,0,0,1,.4-.5c.1-.1.2-.1.4-.1a1,1,0,0,1,.7.4,1.27,1.27,0,0,1,.1.6,1,1,0,0,1-.4.5C60.3,56.8,60.2,56.9,60.1,56.9Z"/><path d="M60.1,55.8c.1,0,.2,0,.2.1v.2a.35.35,0,0,0-.1.2h-.1c-.1,0-.2,0-.2-.1s0-.3.1-.4h.1m0-1a1.27,1.27,0,0,0-.6.1,1.2,1.2,0,0,0-.5,1.7,1.36,1.36,0,0,0,1.1.7,1.27,1.27,0,0,0,.6-.1,1.2,1.2,0,0,0,.5-1.7,1.36,1.36,0,0,0-1.1-.7Z"/><path class="cls-1" d="M55,54.3a.8.8,0,1,1,.8-.8A.79.79,0,0,1,55,54.3Z"/><path d="M55,53.3a.32.32,0,0,1,.3.3.3.3,0,0,1-.6,0,.32.32,0,0,1,.3-.3m0-1a1.3,1.3,0,1,0,1.3,1.3A1.26,1.26,0,0,0,55,52.3Z"/><path class="cls-1" d="M52.5,51.8a.8.8,0,1,1,.8-.8C53.2,51.4,52.9,51.8,52.5,51.8Z"/><path d="M52.5,50.7a.32.32,0,0,1,.3.3.3.3,0,1,1-.3-.3m0-1A1.3,1.3,0,1,0,53.8,51a1.4,1.4,0,0,0-1.3-1.3Z"/><path class="cls-1" d="M52.5,49.2a.79.79,0,0,1-.8-.8.74.74,0,0,1,.8-.8.8.8,0,1,1,0,1.6Z"/><path d="M52.5,48.2a.32.32,0,0,1,.3.3.3.3,0,1,1-.3-.3m0-1a1.3,1.3,0,1,0,1.3,1.3,1.4,1.4,0,0,0-1.3-1.3Z"/><path class="cls-1" d="M49.9,51.8a.8.8,0,0,1,0-1.6.74.74,0,0,1,.8.8A.79.79,0,0,1,49.9,51.8Z"/><path d="M49.9,50.7a.32.32,0,0,1,.3.3.3.3,0,1,1-.6,0,.32.32,0,0,1,.3-.3m0-1A1.3,1.3,0,1,0,51.2,51a1.32,1.32,0,0,0-1.3-1.3Z"/><circle class="cls-1" cx="49.9" cy="48.5" r="0.8"/><path d="M49.9,48.2a.32.32,0,0,1,.3.3.3.3,0,0,1-.6,0,.32.32,0,0,1,.3-.3m0-1a1.3,1.3,0,1,0,1.3,1.3,1.32,1.32,0,0,0-1.3-1.3Z"/><path class="cls-1" d="M49.9,54.3a.8.8,0,0,1,0-1.6.8.8,0,0,1,0,1.6Z"/><path d="M49.9,53.3a.32.32,0,0,1,.3.3.3.3,0,1,1-.6,0,.32.32,0,0,1,.3-.3m0-1a1.3,1.3,0,1,0,1.3,1.3,1.26,1.26,0,0,0-1.3-1.3Z"/><path class="cls-1" d="M57.5,56.9a.8.8,0,0,1,0-1.6.74.74,0,0,1,.8.8A.79.79,0,0,1,57.5,56.9Z"/><path d="M57.5,55.8a.32.32,0,0,1,.3.3.3.3,0,0,1-.6,0,.32.32,0,0,1,.3-.3m0-1a1.3,1.3,0,1,0,1.3,1.3,1.32,1.32,0,0,0-1.3-1.3Z"/><circle class="cls-1" cx="57.5" cy="43.4" r="0.8"/><path d="M57.5,43.1a.32.32,0,0,1,.3.3.3.3,0,1,1-.6,0,.32.32,0,0,1,.3-.3m0-1a1.3,1.3,0,1,0,1.3,1.3,1.32,1.32,0,0,0-1.3-1.3Z"/><path class="cls-1" d="M42.3,49.2a.79.79,0,0,1-.8-.8.74.74,0,0,1,.8-.8.8.8,0,0,1,0,1.6Z"/><path d="M42.3,48.2a.32.32,0,0,1,.3.3.3.3,0,0,1-.6,0,.32.32,0,0,1,.3-.3m0-1a1.3,1.3,0,1,0,1.3,1.3,1.32,1.32,0,0,0-1.3-1.3Z"/><path class="cls-1" d="M60.1,46.7a.8.8,0,1,1,.8-.8A.79.79,0,0,1,60.1,46.7Z"/><path d="M60.1,45.7a.32.32,0,0,1,.3.3.3.3,0,1,1-.3-.3m0-1A1.3,1.3,0,1,0,61.4,46a1.26,1.26,0,0,0-1.3-1.3Z"/><path class="cls-1" d="M39.8,36.5a.79.79,0,0,1-.8-.8.74.74,0,0,1,.8-.8.8.8,0,1,1,0,1.6Z"/><path d="M39.8,35.5a.32.32,0,0,1,.3.3.3.3,0,1,1-.3-.3m0-1a1.3,1.3,0,1,0,1.3,1.3,1.32,1.32,0,0,0-1.3-1.3Z"/><path class="cls-1" d="M42.3,36.5a.79.79,0,0,1-.8-.8.74.74,0,0,1,.8-.8.8.8,0,1,1,0,1.6Z"/><path d="M42.3,35.5a.32.32,0,0,1,.3.3.3.3,0,1,1-.6,0,.32.32,0,0,1,.3-.3m0-1a1.3,1.3,0,1,0,1.3,1.3,1.32,1.32,0,0,0-1.3-1.3Z"/><circle class="cls-1" cx="44.9" cy="35.8" r="0.8"/><path d="M44.9,35.5a.32.32,0,0,1,.3.3.3.3,0,1,1-.3-.3m0-1a1.3,1.3,0,1,0,1.3,1.3,1.32,1.32,0,0,0-1.3-1.3Z"/><path class="cls-1" d="M47.4,36.5a.79.79,0,0,1-.8-.8.74.74,0,0,1,.8-.8.8.8,0,0,1,0,1.6Z"/><path d="M47.4,35.5a.32.32,0,0,1,.3.3.3.3,0,1,1-.3-.3m0-1a1.3,1.3,0,1,0,1.3,1.3,1.32,1.32,0,0,0-1.3-1.3Z"/><rect class="cls-1" x="58.6" y="90.9" width="25.2" height="1"/><polygon points="83.9 90.9 58.6 90.9 58.6 91.9 83.9 91.9 83.9 90.9"/><path class="cls-1" d="M48.4,91.9H25.1v-1H49V91c.5.1.5.2.5.4a.47.47,0,0,1-.5.5h-.6Z"/><path d="M46.3,90.9H25.1v1H49c.4,0,.5-.1.5-.5,0-.2,0-.4-.5-.4v-.1H46.3Z"/><rect class="cls-1" x="29.1" y="64.5" width="50.7" height="1"/><polygon points="79.8 64.5 29.1 64.5 29.1 65.5 79.8 65.5 79.8 64.5"/><rect class="cls-1" x="53.55" y="46.88" width="1" height="58.4" transform="translate(-22.16 129.96) rotate(-89.87)"/><polygon points="24.9 75.6 24.8 76.6 83.3 76.7 83.3 75.7 24.9 75.6"/><path class="cls-1" d="M19.7,78.9a6.74,6.74,0,0,1-3.9-1.3l.5-.8a5.6,5.6,0,0,0,5.1.8c5.5-2,9-12.5,9-12.7l1,.3c-.1.5-3.6,11.2-9.6,13.3A5.22,5.22,0,0,1,19.7,78.9Z"/><path d="M30.5,64.9c0,.1-3.5,10.7-9,12.7a5.55,5.55,0,0,1-1.7.3,6.79,6.79,0,0,1-3.4-1.1l-.5.8a7.55,7.55,0,0,0,3.9,1.3,5.22,5.22,0,0,0,2.1-.4c6-2.1,9.5-12.8,9.6-13.3l-1-.3Z"/><path class="cls-1" d="M88.7,78.9a5.22,5.22,0,0,1-2.1-.4c-6-2.1-9.5-12.8-9.6-13.3l1-.3c0,.1,3.5,10.7,9,12.7a5.6,5.6,0,0,0,5.1-.8l.5.8A6.74,6.74,0,0,1,88.7,78.9Z"/><path d="M77.9,64.9l-1,.3c.1.5,3.6,11.2,9.6,13.3a7.79,7.79,0,0,0,2.1.4,6.74,6.74,0,0,0,3.9-1.3l-.5-.8a6.5,6.5,0,0,1-3.4,1.1,4.67,4.67,0,0,1-1.7-.3c-5.5-2-8.9-12.6-9-12.7Z"/><rect class="cls-1" x="24.3" y="75.9" width="1" height="16.1"/><polygon points="25.3 75.9 24.3 75.9 24.3 92 25.3 92 25.3 75.9"/><rect class="cls-1" x="82.9" y="75.9" width="1" height="15.1"/><polygon points="83.9 75.9 82.9 75.9 82.9 90.9 83.9 90.9 83.9 75.9"/><path class="cls-1" d="M48.8,90.9h-1a5.8,5.8,0,0,1,5.8-5.8v1A4.87,4.87,0,0,0,48.8,90.9Z"/><path d="M53.6,85.1a5.8,5.8,0,0,0-5.8,5.8h1a4.8,4.8,0,0,1,4.8-4.8v-1Z"/><path class="cls-1" d="M59.4,90.9h-1a4.8,4.8,0,0,0-4.8-4.8v-1A5.8,5.8,0,0,1,59.4,90.9Z"/><path d="M53.6,85.1v1a4.8,4.8,0,0,1,4.8,4.8h1a5.8,5.8,0,0,0-5.8-5.8Z"/><path d="M35.2,14.1c4.9,1.2,4,4.5,2.5,3.6a4.15,4.15,0,0,0-.7-1.3c-1.8.4-4.3.8-7.4,1.2a1.38,1.38,0,0,1-.4.3l-.5-1.6a2,2,0,0,1,.5-.1,13,13,0,0,0,3.6-3.8l2,.8c0,.1-.2.2-.5.2a17.41,17.41,0,0,1-4.2,3c1.6,0,4.1-.1,6.7-.2a10.46,10.46,0,0,0-1.7-1.9Zm1.5,3.8L38.2,19a1.63,1.63,0,0,1-.6.3v3.9a2.54,2.54,0,0,1-1.2.3h-.2v-1H31.6v.6a2,2,0,0,1-1.3.5h-.2V18l1.6.6h4.4Zm-.6,4.2V19H31.5v3.1Z"/><path d="M45.9,20.9V21a48.15,48.15,0,0,1-4.5,2.2q-.15.3-.3.3l-.7-1.8c.6-.1,1.8-.2,3.1-.4V16.6H40.8l-.1-.3h2.8V12.7l1.8.2c0,.2-.1.3-.4.3v7.9Zm5.1.8c.4.2.5.3.5.6,0,.6-.6.9-2.4.9H48c-1.2,0-1.6-.3-1.6-1.3V12.7l1.8.2c0,.2-.1.3-.4.3v3.1h1.6l.6-1.1s.7.8,1.1,1.2c0,.1-.1.2-.3.2h-3v4.8c0,.3.1.4.5.4H50c.1,0,.2,0,.3-.2s.3-1,.6-1.7H51Z"/><path d="M58.5,21.9a9.72,9.72,0,0,0,1.8.1h3.2v.1c-.5.1-.7.6-.7,1.2H60.2c-2.7,0-4.2-.6-5-2.9a7,7,0,0,1-3,3.2l-.1-.1a8.8,8.8,0,0,0,2.2-5.6l1.9.3c0,.2-.2.3-.5.3a12.44,12.44,0,0,1-.4,1.6A3.29,3.29,0,0,0,57,21.7V17l1.8.2c0,.2-.1.3-.4.3V19h1.7l.8-1s.9.7,1.5,1.2c0,.1-.2.2-.3.2H58.5v2.5ZM57,16.6V14.7H53.5l-.1-.3H57V12.5l1.9.2c0,.2-.1.3-.4.3v1.4h1.6l.8-1s.9.7,1.5,1.1c0,.1-.2.2-.3.2H58.6v1.9h2.6l.8-1s.9.7,1.5,1.2c0,.1-.2.2-.3.2H52.6l-.1-.3H57Z"/><path d="M70.5,21.9a9.72,9.72,0,0,0,1.8.1h3.2v.1c-.5.1-.7.6-.7,1.2H72.2c-2.7,0-4.2-.6-5-2.9a7,7,0,0,1-3,3.2l-.1-.1a8.8,8.8,0,0,0,2.2-5.6l1.9.3c0,.2-.2.3-.5.3a12.44,12.44,0,0,1-.4,1.6A3.29,3.29,0,0,0,69,21.7V17l1.8.2c0,.2-.1.3-.4.3V19h1.7l.8-1s.9.7,1.5,1.2c0,.1-.2.2-.3.2H70.5v2.5ZM69,16.6V14.7H65.5l-.1-.3H69V12.5l1.9.2c0,.2-.1.3-.4.3v1.4h1.6l.8-1s.9.7,1.5,1.1c0,.1-.2.2-.3.2H70.6v1.9h2.6l.8-1s.9.7,1.5,1.2c0,.1-.2.2-.3.2H64.6l-.1-.3H69Z"/><path d="M12.7,110.7h1.2l.2,4a9.7,9.7,0,0,0,.1,1.7h0c.1-.6.1-1.1.2-1.7l.3-2.2h.9l.3,2.2c.1.6.1,1,.2,1.7h0v-1.7l.2-4h1.1l-.6,7.2H15.4l-.3-2.5A6.6,6.6,0,0,1,15,114h0c0,.4-.1.9-.1,1.4l-.3,2.5H13.3Z"/><path d="M17.8,116.5c0-1.2,1-1.8,2.6-2.1,0-.6-.3-1-.7-1a2.37,2.37,0,0,0-1.2.5L18,113a3.86,3.86,0,0,1,2-.6c1.1,0,1.9.8,1.9,2.2v3.3H20.8l-.1-.6h0a1.62,1.62,0,0,1-1.4.7A1.37,1.37,0,0,1,17.8,116.5Zm2.6-.1v-1.1c-.9.2-1.2.5-1.2,1.1,0,.4.2.6.5.6A1.87,1.87,0,0,0,20.4,116.4Z"/><path d="M23.8,116v-4.5H22.7v-1.1h2.5v5.7c0,.6.3.8.6.8a.55.55,0,0,0,.5-.2l.3,1.1a2.77,2.77,0,0,1-1.3.3C24.3,118,23.8,117.2,23.8,116Z"/><path d="M27.6,110.4H29v4.3h0l1.3-2.2h1.5l-1.4,2.2,1.5,3.2H30.5l-.9-2.2-.5.9v1.3H27.7v-7.5Z"/><path d="M34.1,113.6H32.5v-1.1h3v5.4H34.1Zm-.3-2.8a.82.82,0,0,1,.9-.8.74.74,0,0,1,.8.8.79.79,0,0,1-.8.8A.82.82,0,0,1,33.8,110.8Z"/><path d="M37.2,112.5h1.1l.1.7h0a1.84,1.84,0,0,1,1.4-.8c.9,0,1.3.7,1.3,1.9V118H39.7v-3.5c0-.6-.1-.8-.5-.8s-.5.2-.7.6v3.8H37.2Z"/><path d="M41.9,118.8a1.25,1.25,0,0,1,.6-1.1h0a1.05,1.05,0,0,1-.5-.9,1.1,1.1,0,0,1,.6-1h0a1.56,1.56,0,0,1-.6-1.4,1.76,1.76,0,0,1,1.8-1.9,1.27,1.27,0,0,1,.6.1h1.7v1.1h-.8a1.88,1.88,0,0,1,.2.8,1.64,1.64,0,0,1-1.6,1.8,1.27,1.27,0,0,1-.6-.1c-.1.1-.1.2-.1.4s.2.5.7.5h.6c1.1,0,1.7.4,1.7,1.4s-.9,1.8-2.4,1.8C42.8,120.1,41.9,119.7,41.9,118.8Zm3-.3c0-.4-.3-.5-.7-.5H44a1.08,1.08,0,0,1-.6-.1.73.73,0,0,0-.2.6q0,.6.9.6A.7.7,0,0,0,44.9,118.5Zm-.6-4.3c0-.7-.2-1-.5-1s-.5.3-.5,1,.2,1,.5,1S44.3,114.9,44.3,114.2Z"/><path d="M53.3,113.6H51.7v-1.1h3v5.4H53.3Zm-.2-2.8a.82.82,0,0,1,.9-.8.74.74,0,0,1,.8.8.79.79,0,0,1-.8.8A.82.82,0,0,1,53.1,110.8Z"/><path d="M56.5,112.5h1.1l.1.7h0a1.84,1.84,0,0,1,1.4-.8c.9,0,1.3.7,1.3,1.9V118H59v-3.5c0-.6-.1-.8-.5-.8s-.5.2-.7.6v3.8H56.4v-5.6Z"/><path d="M67.4,111.9H65.9v-1.2h4.4v1.2H68.8v6H67.4Z"/><path d="M70.9,116.5c0-1.2,1-1.8,2.6-2.1,0-.6-.3-1-.7-1a2.37,2.37,0,0,0-1.2.5l-.5-.9a3.86,3.86,0,0,1,2-.6c1.1,0,1.9.8,1.9,2.2v3.3H73.9l-.1-.6h0a1.62,1.62,0,0,1-1.4.7A1.37,1.37,0,0,1,70.9,116.5Zm2.6-.1v-1.1c-.9.2-1.2.5-1.2,1.1,0,.4.2.6.5.6A1.87,1.87,0,0,0,73.5,116.4Z"/><path d="M77.5,113.6H75.9v-1.1h3v5.4H77.5Zm-.3-2.8a.82.82,0,0,1,.9-.8.74.74,0,0,1,.8.8.79.79,0,0,1-.8.8A.82.82,0,0,1,77.2,110.8Z"/><path d="M80.7,112.5h1.1l.1.6h0a1.36,1.36,0,0,1,1.1-.7c1,0,1.6.9,1.6,2.7,0,2-.8,2.9-1.7,2.9a1.38,1.38,0,0,1-.9-.5v2.3H80.6v-7.3Zm2.5,2.6c0-1.1-.2-1.6-.6-1.6q-.3,0-.6.6v2.5c.2.3.3.3.5.3C82.9,116.8,83.2,116.4,83.2,115.1Z"/><path d="M85.4,115.2c0-1.8,1.1-2.8,2.2-2.8,1.3,0,1.9,1.1,1.9,2.6v.7H86.8c.1.9.5,1.3,1.1,1.3a1.61,1.61,0,0,0,.9-.3l.5.9a2.69,2.69,0,0,1-1.5.5A2.58,2.58,0,0,1,85.4,115.2Zm2.8-.6c0-.7-.2-1.2-.7-1.2s-.8.4-.8,1.2Z"/><path d="M91.9,113.6H90.3v-1.1h3v5.4H91.9Zm-.2-2.8a.82.82,0,0,1,.9-.8.74.74,0,0,1,.8.8.79.79,0,0,1-.8.8A.82.82,0,0,1,91.7,110.8Z"/></g></g></svg>