<svg xmlns="http://www.w3.org/2000/svg" viewBox="0 0 106 120.3"><defs><style>.cls-1{fill:#fff;}.cls-2{stroke:#000;stroke-miterlimit:10;stroke-width:0.35px;}</style></defs><g id="圖層_2" data-name="圖層 2"><g id="圖層_1-2" data-name="圖層 1"><path d="M36,14.1c4.9,1.2,4,4.5,2.5,3.6a4.15,4.15,0,0,0-.7-1.3c-1.8.4-4.3.8-7.4,1.2a1.38,1.38,0,0,1-.4.3l-.5-1.6a2,2,0,0,1,.5-.1,13,13,0,0,0,3.6-3.8l2,.8c0,.1-.2.2-.5.2a17.41,17.41,0,0,1-4.2,3c1.6,0,4.1-.1,6.7-.2a10.46,10.46,0,0,0-1.7-1.9Zm1.5,3.8L39,19a1.63,1.63,0,0,1-.6.3v3.9a2.54,2.54,0,0,1-1.2.3H37v-1H32.4v.6a2,2,0,0,1-1.3.5h-.2V18l1.6.6h4.4Zm-.6,4.2V19H32.3v3.1Z"/><path d="M46.7,20.9h0a29.59,29.59,0,0,1-4.5,2.3q-.15.3-.3.3l-.7-1.8c.6-.1,1.8-.2,3.1-.4V16.6H41.6l-.1-.3h2.8V12.7l1.8.2c0,.2-.1.3-.4.3v7.9Zm5.1.8c.4.2.5.3.5.6,0,.6-.6.9-2.4.9H48.8c-1.2,0-1.6-.3-1.6-1.3V12.7l1.8.2c0,.2-.1.3-.4.3v3.1h1.6l.6-1.1s.7.8,1.1,1.2c0,.1-.1.2-.3.2h-3v4.8c0,.3.1.4.5.4h1.7c.1,0,.2,0,.3-.2s.3-1,.6-1.7h.1Z"/><path d="M59.3,21.9a9.72,9.72,0,0,0,1.8.1h3.2v.1c-.5.1-.7.6-.7,1.2H61c-2.7,0-4.2-.6-5-2.9a7,7,0,0,1-3,3.2l-.1-.1a8.8,8.8,0,0,0,2.2-5.6l1.9.3c0,.2-.2.3-.5.3a12.44,12.44,0,0,1-.4,1.6,3.29,3.29,0,0,0,1.7,1.6V17l1.8.2c0,.2-.1.3-.4.3V19h1.7l.8-1s.9.7,1.5,1.2c0,.1-.2.2-.3.2H59.3v2.5Zm-1.5-5.3V14.7H54.3l-.1-.3h3.6V12.5l1.9.2c0,.2-.1.3-.4.3v1.4h1.6l.8-1s.9.7,1.5,1.1c0,.1-.2.2-.3.2H59.4v1.9H62l.8-1s.9.7,1.5,1.2c0,.1-.2.2-.3.2H53.4l-.1-.3h4.5Z"/><path d="M71.3,21.9a9.72,9.72,0,0,0,1.8.1h3.2v.1c-.5.1-.7.6-.7,1.2H73c-2.7,0-4.2-.6-5-2.9a7,7,0,0,1-3,3.2l-.1-.1a8.8,8.8,0,0,0,2.2-5.6l1.9.3c0,.2-.2.3-.5.3a12.44,12.44,0,0,1-.4,1.6,3.29,3.29,0,0,0,1.7,1.6V17l1.8.2c0,.2-.1.3-.4.3V19h1.7l.8-1s.9.7,1.5,1.2c0,.1-.2.2-.3.2H71.3v2.5Zm-1.5-5.3V14.7H66.3l-.1-.3h3.6V12.5l1.9.2c0,.2-.1.3-.4.3v1.4h1.6l.8-1s.9.7,1.5,1.1c0,.1-.2.2-.3.2H71.4v1.9H74l.8-1s.9.7,1.5,1.2c0,.1-.2.2-.3.2H65.4l-.1-.3h4.5Z"/><path d="M12.7,110.7h1.2l.2,4a9.7,9.7,0,0,0,.1,1.7h0c.1-.6.1-1.1.2-1.7l.3-2.2h.9l.3,2.2c.1.6.1,1,.2,1.7h0v-1.7l.2-4h1.1l-.6,7.2H15.4l-.3-2.5A6.6,6.6,0,0,1,15,114h0c0,.4-.1.9-.1,1.4l-.3,2.5H13.3Z"/><path d="M17.8,116.5c0-1.2,1-1.8,2.6-2.1,0-.6-.3-1-.7-1a2.37,2.37,0,0,0-1.2.5L18,113a3.86,3.86,0,0,1,2-.6c1.1,0,1.9.8,1.9,2.2v3.3H20.8l-.1-.6h0a1.62,1.62,0,0,1-1.4.7A1.37,1.37,0,0,1,17.8,116.5Zm2.6-.1v-1.1c-.9.2-1.2.5-1.2,1.1,0,.4.2.6.5.6A1.87,1.87,0,0,0,20.4,116.4Z"/><path d="M23.8,116v-4.5H22.7v-1.1h2.5v5.7c0,.6.3.8.6.8a.55.55,0,0,0,.5-.2l.3,1.1a2.77,2.77,0,0,1-1.3.3C24.3,118,23.8,117.2,23.8,116Z"/><path d="M27.6,110.4H29v4.3h0l1.3-2.2h1.5l-1.4,2.2,1.5,3.2H30.5l-.9-2.2-.5.9v1.3H27.7l-.1-7.5Z"/><path d="M34.1,113.6H32.5v-1.1h3v5.4H34.1Zm-.3-2.8a.82.82,0,0,1,.9-.8.74.74,0,0,1,.8.8.79.79,0,0,1-.8.8A.82.82,0,0,1,33.8,110.8Z"/><path d="M37.2,112.5h1.1l.1.7h0a1.84,1.84,0,0,1,1.4-.8c.9,0,1.3.7,1.3,1.9V118H39.7v-3.5c0-.6-.1-.8-.5-.8s-.5.2-.7.6v3.8H37.2Z"/><path d="M41.9,118.8a1.25,1.25,0,0,1,.6-1.1h0a1.05,1.05,0,0,1-.5-.9,1.1,1.1,0,0,1,.6-1h0a1.56,1.56,0,0,1-.6-1.4,1.76,1.76,0,0,1,1.8-1.9,1.27,1.27,0,0,1,.6.1h1.7v1.1h-.8a1.88,1.88,0,0,1,.2.8,1.64,1.64,0,0,1-1.6,1.8,1.27,1.27,0,0,1-.6-.1c-.1.1-.1.2-.1.4s.2.5.7.5h.6c1.1,0,1.7.4,1.7,1.4s-.9,1.8-2.4,1.8C42.8,120.1,41.9,119.7,41.9,118.8Zm3-.3c0-.4-.3-.5-.7-.5H44a1.08,1.08,0,0,1-.6-.1.73.73,0,0,0-.2.6q0,.6.9.6A.7.7,0,0,0,44.9,118.5Zm-.6-4.3c0-.7-.2-1-.5-1s-.5.3-.5,1,.2,1,.5,1S44.3,114.9,44.3,114.2Z"/><path d="M53.3,113.6H51.7v-1.1h3v5.4H53.3Zm-.2-2.8a.82.82,0,0,1,.9-.8.74.74,0,0,1,.8.8.79.79,0,0,1-.8.8A.82.82,0,0,1,53.1,110.8Z"/><path d="M56.5,112.5h1.1l.1.7h0a1.84,1.84,0,0,1,1.4-.8c.9,0,1.3.7,1.3,1.9V118H59v-3.5c0-.6-.1-.8-.5-.8s-.5.2-.7.6v3.8H56.4l.1-5.6Z"/><path d="M67.4,111.9H65.9v-1.2h4.4v1.2H68.8v6H67.4Z"/><path d="M70.9,116.5c0-1.2,1-1.8,2.6-2.1,0-.6-.3-1-.7-1a2.37,2.37,0,0,0-1.2.5l-.5-.9a3.86,3.86,0,0,1,2-.6c1.1,0,1.9.8,1.9,2.2v3.3H73.9l-.1-.6h0a1.62,1.62,0,0,1-1.4.7A1.37,1.37,0,0,1,70.9,116.5Zm2.6-.1v-1.1c-.9.2-1.2.5-1.2,1.1,0,.4.2.6.5.6A1.87,1.87,0,0,0,73.5,116.4Z"/><path d="M77.5,113.6H75.9v-1.1h3v5.4H77.5Zm-.3-2.8a.82.82,0,0,1,.9-.8.74.74,0,0,1,.8.8.79.79,0,0,1-.8.8A.82.82,0,0,1,77.2,110.8Z"/><path d="M80.7,112.5h1.1l.1.6h0a1.36,1.36,0,0,1,1.1-.7c1,0,1.6.9,1.6,2.7,0,2-.8,2.9-1.7,2.9a1.38,1.38,0,0,1-.9-.5v2.3H80.6l.1-7.3Zm2.5,2.6c0-1.1-.2-1.6-.6-1.6q-.3,0-.6.6v2.5c.2.3.3.3.5.3C82.9,116.8,83.2,116.4,83.2,115.1Z"/><path d="M85.4,115.2c0-1.8,1.1-2.8,2.2-2.8,1.3,0,1.9,1.1,1.9,2.6v.7H86.8c.1.9.5,1.3,1.1,1.3a1.61,1.61,0,0,0,.9-.3l.5.9a2.69,2.69,0,0,1-1.5.5A2.58,2.58,0,0,1,85.4,115.2Zm2.8-.6c0-.7-.2-1.2-.7-1.2s-.8.4-.8,1.2Z"/><path d="M91.9,113.6H90.3v-1.1h3v5.4H91.9Zm-.2-2.8a.82.82,0,0,1,.9-.8.74.74,0,0,1,.8.8.79.79,0,0,1-.8.8A.82.82,0,0,1,91.7,110.8Z"/><path d="M53,5A48,48,0,1,1,5,53,48,48,0,0,1,53,5m0-5a53,53,0,1,0,53,53A53,53,0,0,0,53,0Z"/><rect class="cls-1" x="57.4" y="90.9" width="25.2" height="1"/><polygon points="82.7 90.9 57.4 90.9 57.4 91.9 82.7 91.9 82.7 90.9"/><path class="cls-1" d="M47.2,91.9H23.9v-1H47.8V91c.5.1.5.2.5.4a.47.47,0,0,1-.5.5h-.6Z"/><path d="M45.1,90.9H23.9v1H47.8c.4,0,.5-.1.5-.5,0-.2,0-.4-.5-.4v-.1H45.1Z"/><rect class="cls-1" x="27.9" y="64.5" width="50.7" height="1"/><polygon points="78.6 64.5 27.9 64.5 27.9 65.5 78.6 65.5 78.6 64.5"/><rect class="cls-1" x="52.31" y="46.89" width="1" height="58.4" transform="translate(-23.4 128.73) rotate(-89.87)"/><polygon points="23.7 75.6 23.6 76.6 82.1 76.7 82.1 75.7 23.7 75.6"/><path class="cls-1" d="M18.5,78.9a6.74,6.74,0,0,1-3.9-1.3l.5-.8a5.6,5.6,0,0,0,5.1.8c5.5-2,9-12.5,9-12.7l1,.3c-.1.5-3.6,11.2-9.6,13.3A5.22,5.22,0,0,1,18.5,78.9Z"/><path d="M29.3,64.9c0,.1-3.5,10.7-9,12.7a5.55,5.55,0,0,1-1.7.3,6.79,6.79,0,0,1-3.4-1.1l-.5.8a7.55,7.55,0,0,0,3.9,1.3,5.22,5.22,0,0,0,2.1-.4c6-2.1,9.5-12.8,9.6-13.3l-1-.3Z"/><path class="cls-1" d="M87.5,78.9a5.22,5.22,0,0,1-2.1-.4c-6-2.1-9.5-12.8-9.6-13.3l1-.3c0,.1,3.5,10.7,9,12.7a5.6,5.6,0,0,0,5.1-.8l.5.8A6.74,6.74,0,0,1,87.5,78.9Z"/><path d="M76.7,64.9l-1,.3c.1.5,3.6,11.2,9.6,13.3a7.79,7.79,0,0,0,2.1.4,6.74,6.74,0,0,0,3.9-1.3l-.5-.8a6.5,6.5,0,0,1-3.4,1.1,4.67,4.67,0,0,1-1.7-.3c-5.5-2-8.9-12.6-9-12.7Z"/><rect class="cls-1" x="23.1" y="75.9" width="1" height="16.1"/><polygon points="24.1 75.9 23.1 75.9 23.1 92 24.1 92 24.1 75.9"/><rect class="cls-1" x="81.7" y="75.9" width="1" height="15.1"/><polygon points="82.7 75.9 81.7 75.9 81.7 90.9 82.7 90.9 82.7 75.9"/><path class="cls-1" d="M47.6,90.9h-1a5.8,5.8,0,0,1,5.8-5.8v1A4.87,4.87,0,0,0,47.6,90.9Z"/><path d="M52.4,85.1a5.8,5.8,0,0,0-5.8,5.8h1a4.8,4.8,0,0,1,4.8-4.8v-1Z"/><path class="cls-1" d="M58.2,90.9h-1a4.8,4.8,0,0,0-4.8-4.8v-1A5.8,5.8,0,0,1,58.2,90.9Z"/><path d="M52.4,85.1v1a4.8,4.8,0,0,1,4.8,4.8h1a5.8,5.8,0,0,0-5.8-5.8Z"/><path class="cls-1" d="M43.2,29.6a.8.8,0,1,1,.8-.8C44.1,29.3,43.7,29.6,43.2,29.6Z"/><path d="M43.2,28.5a.3.3,0,1,1-.3.3.32.32,0,0,1,.3-.3m0-1.1a1.4,1.4,0,1,0,1.4,1.4,1.36,1.36,0,0,0-1.4-1.4Z"/><path class="cls-1" d="M46,29.6a.8.8,0,1,1,.8-.8A.74.74,0,0,1,46,29.6Z"/><path d="M46,28.5a.3.3,0,1,1,0,.6.45.45,0,0,1-.3-.3c-.1-.1.1-.3.3-.3m0-1.1a1.4,1.4,0,1,0,1.4,1.4A1.51,1.51,0,0,0,46,27.4Z"/><path class="cls-1" d="M43.2,35.3a.8.8,0,1,1,.8-.8C44.1,34.9,43.7,35.3,43.2,35.3Z"/><path d="M43.2,34.1a.3.3,0,1,1-.3.3.32.32,0,0,1,.3-.3m0-1.1a1.4,1.4,0,1,0,1.4,1.4A1.31,1.31,0,0,0,43.2,33Z"/><path class="cls-1" d="M46,35.3a.8.8,0,1,1,.8-.8A.79.79,0,0,1,46,35.3Z"/><path d="M46,34.1a.3.3,0,0,1,0,.6.45.45,0,0,1-.3-.3.32.32,0,0,1,.3-.3M46,33a1.4,1.4,0,1,0,1.4,1.4A1.43,1.43,0,0,0,46,33Z"/><path class="cls-1" d="M46,43.6a.8.8,0,1,1,.8-.8A.74.74,0,0,1,46,43.6Z"/><path d="M46,42.5a.3.3,0,0,1,0,.6.45.45,0,0,1-.3-.3.32.32,0,0,1,.3-.3m0-1.1a1.4,1.4,0,1,0,1.4,1.4A1.51,1.51,0,0,0,46,41.4Z"/><path class="cls-1" d="M48.8,43.6a.8.8,0,1,1,.8-.8A.79.79,0,0,1,48.8,43.6Z"/><path d="M48.8,42.5a.3.3,0,1,1-.3.3.45.45,0,0,1,.3-.3m0-1.1a1.4,1.4,0,1,0,1.4,1.4c.1-.7-.7-1.4-1.4-1.4Z"/><path class="cls-1" d="M51.6,43.6a.8.8,0,0,1,0-1.6.86.86,0,0,1,.8.8A.79.79,0,0,1,51.6,43.6Z"/><path d="M51.6,42.5a.3.3,0,1,1-.3.3.45.45,0,0,1,.3-.3m0-1.1A1.4,1.4,0,1,0,53,42.8a1.51,1.51,0,0,0-1.4-1.4Z"/><path class="cls-1" d="M46,38.1a.8.8,0,1,1,.8-.8A.79.79,0,0,1,46,38.1Z"/><path d="M46,36.9a.3.3,0,1,1,0,.6.45.45,0,0,1-.3-.3.27.27,0,0,1,.3-.3m0-1.1a1.4,1.4,0,1,0,1.4,1.4A1.51,1.51,0,0,0,46,35.8Z"/><path class="cls-1" d="M48.8,38.1a.8.8,0,1,1,.8-.8A.86.86,0,0,1,48.8,38.1Z"/><path d="M48.8,36.9a.3.3,0,1,1-.3.3.32.32,0,0,1,.3-.3m0-1.1a1.4,1.4,0,1,0,1.4,1.4,1.51,1.51,0,0,0-1.4-1.4Z"/><path class="cls-1" d="M51.6,38.1a.8.8,0,0,1,0-1.6.8.8,0,0,1,0,1.6Z"/><path d="M51.6,36.9a.3.3,0,1,1-.3.3.32.32,0,0,1,.3-.3m0-1.1A1.4,1.4,0,1,0,53,37.2a1.51,1.51,0,0,0-1.4-1.4Z"/><path class="cls-1" d="M54.4,38.1a.8.8,0,1,1,.8-.8C55.3,37.7,54.8,38.1,54.4,38.1Z"/><path d="M54.4,36.9a.3.3,0,1,1-.3.3.27.27,0,0,1,.3-.3m0-1.1a1.4,1.4,0,1,0,1.4,1.4,1.43,1.43,0,0,0-1.4-1.4Z"/><path class="cls-1" d="M57.1,38.1a.8.8,0,1,1,.8-.8C58.1,37.7,57.7,38.1,57.1,38.1Z"/><path d="M57.1,36.9a.3.3,0,1,1-.3.3c.2-.2.2-.3.3-.3m0-1.1a1.4,1.4,0,1,0,1.4,1.4,1.36,1.36,0,0,0-1.4-1.4Z"/><path class="cls-1" d="M43.2,63.3a.8.8,0,1,1,.8-.8A.79.79,0,0,1,43.2,63.3Z"/><path d="M43.2,62.1a.32.32,0,0,1,.3.3.45.45,0,0,1-.3.3.3.3,0,1,1,0-.6m0-1.1a1.4,1.4,0,1,0,1.4,1.4A1.31,1.31,0,0,0,43.2,61Z"/><circle class="cls-1" cx="46" cy="62.5" r="0.8"/><path d="M46,62.1a.32.32,0,0,1,.3.3.3.3,0,1,1-.6,0,.32.32,0,0,1,.3-.3M46,61a1.4,1.4,0,1,0,1.4,1.4A1.43,1.43,0,0,0,46,61Z"/><path class="cls-1" d="M48.8,60.5a.8.8,0,1,1,.8-.8A.86.86,0,0,1,48.8,60.5Z"/><path d="M48.8,59.3a.3.3,0,1,1-.3.3.45.45,0,0,1,.3-.3m0-1.1a1.4,1.4,0,1,0,1.4,1.4c.1-.7-.7-1.4-1.4-1.4Z"/><path class="cls-1" d="M48.8,57.6a.8.8,0,1,1,.8-.8A.79.79,0,0,1,48.8,57.6Z"/><path d="M48.8,56.6a.3.3,0,1,1-.3.3.32.32,0,0,1,.3-.3m0-1.2a1.4,1.4,0,1,0,1.4,1.4c.1-.7-.7-1.4-1.4-1.4Z"/><path class="cls-1" d="M48.8,54.9a.8.8,0,1,1,.8-.8A.86.86,0,0,1,48.8,54.9Z"/><path d="M48.8,53.8a.3.3,0,1,1-.3.3.32.32,0,0,1,.3-.3m0-1.2A1.4,1.4,0,1,0,50.2,54c.1-.7-.7-1.4-1.4-1.4Z"/><path class="cls-1" d="M62.8,63.3a.76.76,0,0,1-.8-.7.82.82,0,0,1,.7-1h.2a.76.76,0,0,1,.8.7c.1.2,0,.4-.1.7a.55.55,0,0,1-.5.3Z"/><path d="M62.8,62.1a.22.22,0,0,1,.2.2c0,.1-.1.3-.2.3h-.1a.22.22,0,0,1-.2-.2s0-.2.3-.3h0m0-1.1h-.3a1.56,1.56,0,0,0-1.1,1.7,1.39,1.39,0,0,0,1.4,1.1h.3a1.56,1.56,0,0,0,1.1-1.7A1.5,1.5,0,0,0,62.8,61Z"/><path class="cls-1" d="M65.6,60.5a.8.8,0,1,1,.8-.8A.79.79,0,0,1,65.6,60.5Z"/><path d="M65.6,59.3a.3.3,0,1,1-.3.3.32.32,0,0,1,.3-.3m0-1.1A1.4,1.4,0,1,0,67,59.6a1.43,1.43,0,0,0-1.4-1.4Z"/><path class="cls-1" d="M65.6,57.6a.8.8,0,1,1,.8-.8A.74.74,0,0,1,65.6,57.6Z"/><path d="M65.6,56.6a.3.3,0,1,1-.3.3.27.27,0,0,1,.3-.3m0-1.2A1.4,1.4,0,1,0,67,56.8a1.43,1.43,0,0,0-1.4-1.4Z"/><path class="cls-1" d="M62.8,54.9a.75.75,0,0,1-.7-.5.82.82,0,0,1-.1-.7,1,1,0,0,1,.4-.5c.1-.1.2-.1.4-.1a.84.84,0,0,1,.7.4.82.82,0,0,1,.1.7,1,1,0,0,1-.4.5A.76.76,0,0,1,62.8,54.9Z"/><path d="M62.8,53.8a.22.22,0,0,1,.2.2.14.14,0,0,1,0,.2s-.1.2-.2.2h-.2a.22.22,0,0,1-.2-.2c-.1-.2,0-.3.2-.4h.2m0-1.2a2.54,2.54,0,0,0-.7.2,1.43,1.43,0,0,0-.6,1.9,1.21,1.21,0,0,0,1.2.7,2.54,2.54,0,0,0,.7-.2,1.43,1.43,0,0,0,.6-1.9,1.39,1.39,0,0,0-1.2-.7Z"/><path class="cls-1" d="M57.1,52.1a.8.8,0,1,1,.8-.8C58.1,51.7,57.7,52.1,57.1,52.1Z"/><path d="M57.1,50.9a.3.3,0,1,1-.3.3c.2-.1.2-.3.3-.3m0-1a1.4,1.4,0,1,0,1.4,1.4c.1-.9-.5-1.4-1.4-1.4Z"/><path class="cls-1" d="M54.4,49.3a.8.8,0,1,1,.8-.8C55.3,48.9,54.8,49.3,54.4,49.3Z"/><path d="M54.4,48.1a.3.3,0,1,1-.3.3.32.32,0,0,1,.3-.3m0-1.1a1.4,1.4,0,1,0,1.4,1.4A1.43,1.43,0,0,0,54.4,47Z"/><path class="cls-1" d="M54.4,46.5a.8.8,0,1,1,.8-.8C55.3,46.1,54.8,46.5,54.4,46.5Z"/><path d="M54.4,45.3a.3.3,0,1,1-.3.3.32.32,0,0,1,.3-.3m0-1.1a1.4,1.4,0,1,0,1.4,1.4,1.43,1.43,0,0,0-1.4-1.4Z"/><path class="cls-1" d="M51.6,49.3a.8.8,0,1,1,0-1.6.8.8,0,0,1,0,1.6Z"/><path d="M51.6,48.1a.3.3,0,1,1-.3.3.45.45,0,0,1,.3-.3m0-1.1A1.4,1.4,0,1,0,53,48.4,1.43,1.43,0,0,0,51.6,47Z"/><circle class="cls-1" cx="51.6" cy="45.6" r="0.8"/><path d="M51.6,45.3a.3.3,0,1,1-.3.3.45.45,0,0,1,.3-.3m0-1.1A1.4,1.4,0,1,0,53,45.6a1.51,1.51,0,0,0-1.4-1.4Z"/><path class="cls-1" d="M51.6,52.1a.8.8,0,0,1,0-1.6.8.8,0,0,1,0,1.6Z"/><path d="M51.6,50.9a.3.3,0,1,1-.3.3.45.45,0,0,1,.3-.3m0-1A1.4,1.4,0,1,0,53,51.3a1.36,1.36,0,0,0-1.4-1.4Z"/><path class="cls-1" d="M60,54.9a.8.8,0,1,1,.8-.8A.79.79,0,0,1,60,54.9Z"/><path d="M60,53.8a.3.3,0,1,1,0,.6.45.45,0,0,1-.3-.3c.1-.3.1-.3.3-.3m0-1.2A1.4,1.4,0,1,0,61.4,54,1.51,1.51,0,0,0,60,52.6Z"/><circle class="cls-1" cx="60" cy="40" r="0.8"/><path d="M60,39.8a.3.3,0,1,1,0,.6.45.45,0,0,1-.3-.3c-.1-.2.1-.3.3-.3m0-1.2A1.4,1.4,0,1,0,61.4,40,1.51,1.51,0,0,0,60,38.6Z"/><path class="cls-1" d="M43.2,46.5a.8.8,0,1,1,.8-.8C44.1,46.1,43.7,46.5,43.2,46.5Z"/><path d="M43.2,45.3a.3.3,0,1,1-.3.3.32.32,0,0,1,.3-.3m0-1.1a1.4,1.4,0,1,0,1.4,1.4,1.36,1.36,0,0,0-1.4-1.4Z"/><path class="cls-1" d="M62.8,43.6a.8.8,0,1,1,.8-.8A.74.74,0,0,1,62.8,43.6Z"/><path d="M62.8,42.5a.3.3,0,1,1-.3.3.45.45,0,0,1,.3-.3m0-1.1a1.4,1.4,0,1,0,1.4,1.4,1.43,1.43,0,0,0-1.4-1.4Z"/><path class="cls-1" d="M40.4,32.5a.79.79,0,0,1-.8-.8.86.86,0,0,1,.8-.8.79.79,0,0,1,.8.8A1,1,0,0,1,40.4,32.5Z"/><path d="M40.4,31.3a.3.3,0,0,1,0,.6.45.45,0,0,1-.3-.3.32.32,0,0,1,.3-.3m0-1.1a1.4,1.4,0,1,0,1.4,1.4,1.43,1.43,0,0,0-1.4-1.4Z"/><path class="cls-1" d="M43.2,32.5a.79.79,0,0,1-.8-.8.86.86,0,0,1,.8-.8.79.79,0,0,1,.8.8C44.1,32,43.7,32.5,43.2,32.5Z"/><path d="M43.2,31.3a.3.3,0,1,1-.3.3.32.32,0,0,1,.3-.3m0-1.1a1.4,1.4,0,1,0,1.4,1.4,1.36,1.36,0,0,0-1.4-1.4Z"/><circle class="cls-1" cx="46" cy="31.6" r="0.8"/><path d="M46,31.3a.3.3,0,1,1,0,.6.45.45,0,0,1-.3-.3.32.32,0,0,1,.3-.3m0-1.1a1.4,1.4,0,1,0,1.4,1.4A1.51,1.51,0,0,0,46,30.2Z"/><path class="cls-1" d="M48.8,32.5a.79.79,0,0,1-.8-.8.86.86,0,0,1,.8-.8.79.79,0,0,1,.8.8A1,1,0,0,1,48.8,32.5Z"/><path d="M48.8,31.3a.3.3,0,1,1-.3.3.45.45,0,0,1,.3-.3m0-1.1a1.4,1.4,0,1,0,1.4,1.4,1.51,1.51,0,0,0-1.4-1.4Z"/><circle class="cls-2" cx="43.2" cy="28.8" r="0.6"/><circle class="cls-2" cx="46.3" cy="29" r="0.8"/><circle class="cls-2" cx="46" cy="31.6" r="0.8"/><circle class="cls-2" cx="43.2" cy="31.7" r="0.6"/><ellipse class="cls-2" cx="40.3" cy="31.6" rx="0.8" ry="0.4"/><ellipse class="cls-2" cx="43.2" cy="34.6" rx="0.6" ry="0.7"/><ellipse class="cls-2" cx="46" cy="34.6" rx="0.6" ry="0.7"/><circle cx="48.7" cy="31.6" r="0.7"/><circle cx="46" cy="37.2" r="0.6"/><circle cx="48.9" cy="37.2" r="0.6"/><ellipse cx="51.8" cy="37.4" rx="0.8" ry="0.7"/><ellipse cx="54.2" cy="37.4" rx="0.4" ry="0.7"/><ellipse cx="57.1" cy="37.6" rx="0.7" ry="0.8"/><ellipse cx="60" cy="40.3" rx="0.6" ry="0.7"/><circle cx="63" cy="42.7" r="0.5"/><circle cx="51.7" cy="40" r="1.3"/><circle cx="48.9" cy="40" r="1.3"/><circle cx="46" cy="40" r="1.3"/><ellipse cx="51.7" cy="42.8" rx="0.7" ry="0.6"/><circle cx="48.9" cy="42.8" r="0.7"/><circle cx="46" cy="42.9" r="0.7"/><circle cx="43.2" cy="45.9" r="0.7"/><ellipse cx="51.6" cy="45.9" rx="0.6" ry="0.7"/><circle cx="54.5" cy="46" r="0.7"/><ellipse cx="54.51" cy="48.33" rx="0.6" ry="0.8" transform="matrix(0.58, -0.82, 0.82, 0.58, -16.43, 64.89)"/><ellipse cx="51.7" cy="48.5" rx="0.7" ry="0.3"/><ellipse cx="51.8" cy="51.3" rx="0.4" ry="0.8"/><circle cx="57.1" cy="51.4" r="0.7"/><circle cx="48.8" cy="54.3" r="0.6"/><circle cx="48.8" cy="57.2" r="0.7"/><circle cx="48.9" cy="59.9" r="0.7"/><circle cx="46" cy="62.5" r="0.6"/><ellipse cx="43.2" cy="62.5" rx="0.6" ry="0.7"/><ellipse cx="60" cy="54.1" rx="0.8" ry="0.7"/><circle cx="62.7" cy="54.1" r="0.7"/><ellipse cx="65.8" cy="56.9" rx="0.7" ry="0.3"/><circle cx="65.6" cy="59.8" r="0.8"/><circle cx="62.5" cy="62.5" r="0.6"/></g></g></svg>