<svg xmlns="http://www.w3.org/2000/svg" viewBox="0 0 106 122.2"><defs><style>.cls-1{fill:#fff;}</style></defs><g id="圖層_2" data-name="圖層 2"><g id="圖層_1-2" data-name="圖層 1"><path class="cls-1" d="M36.5,16c4.9,1.2,4,4.5,2.5,3.6a4.15,4.15,0,0,0-.7-1.3c-1.8.4-4.3.8-7.4,1.2a1.38,1.38,0,0,1-.4.3L30,18.2a2,2,0,0,1,.5-.1,13,13,0,0,0,3.6-3.8l2,.8c0,.1-.2.2-.5.2a17.41,17.41,0,0,1-4.2,3c1.6,0,4.1-.1,6.7-.2a10.46,10.46,0,0,0-1.7-1.9ZM38,19.8l1.5,1.1a1.63,1.63,0,0,1-.6.3v3.9a2.54,2.54,0,0,1-1.2.3h-.2v-1H32.9V25a2,2,0,0,1-1.3.5h-.2V19.9l1.6.6h4.4ZM37.4,24V20.9H32.8V24Z"/><path class="cls-1" d="M47.2,22.8h0a29.59,29.59,0,0,1-4.5,2.3q-.15.3-.3.3l-.7-1.8c.6-.1,1.8-.2,3.1-.4V18.5H42.1l-.1-.3h2.8V14.6l1.8.2c0,.2-.1.3-.4.3V23Zm5.1.8c.4.2.5.3.5.6,0,.6-.6.9-2.4.9H49.3c-1.2,0-1.6-.3-1.6-1.3V14.6l1.8.2c0,.2-.1.3-.4.3v3.1h1.6l.6-1.1s.7.8,1.1,1.2c0,.1-.1.2-.3.2h-3v4.8c0,.3.1.4.5.4h1.7c.1,0,.2,0,.3-.2s.3-1,.6-1.7h.1v1.8Z"/><path class="cls-1" d="M59.8,23.8a9.72,9.72,0,0,0,1.8.1h3.2V24c-.5.1-.7.6-.7,1.2H61.5c-2.7,0-4.2-.6-5-2.9a7,7,0,0,1-3,3.2l-.1-.1a8.8,8.8,0,0,0,2.2-5.6l1.9.3c0,.2-.2.3-.5.3a12.44,12.44,0,0,1-.4,1.6,3.29,3.29,0,0,0,1.7,1.6V18.9l1.8.2c0,.2-.1.3-.4.3v1.5h1.7l.8-1s.9.7,1.5,1.2c0,.1-.2.2-.3.2H59.8v2.5Zm-1.5-5.3V16.6H54.8l-.1-.3h3.6V14.4l1.9.2c0,.2-.1.3-.4.3v1.4h1.6l.8-1s.9.7,1.5,1.1c0,.1-.2.2-.3.2H59.9v1.9h2.6l.8-1s.9.7,1.5,1.2c0,.1-.2.2-.3.2H53.9l-.1-.3h4.5Z"/><path class="cls-1" d="M71.8,23.8a9.72,9.72,0,0,0,1.8.1h3.2V24c-.5.1-.7.6-.7,1.2H73.5c-2.7,0-4.2-.6-5-2.9a7,7,0,0,1-3,3.2l-.1-.1a8.8,8.8,0,0,0,2.2-5.6l1.9.3c0,.2-.2.3-.5.3a12.44,12.44,0,0,1-.4,1.6,3.29,3.29,0,0,0,1.7,1.6V18.9l1.8.2c0,.2-.1.3-.4.3v1.5h1.7l.8-1s.9.7,1.5,1.2c0,.1-.2.2-.3.2H71.8v2.5Zm-1.5-5.3V16.6H66.8l-.1-.3h3.6V14.4l1.9.2c0,.2-.1.3-.4.3v1.4h1.6l.8-1s.9.7,1.5,1.1c0,.1-.2.2-.3.2H71.9v1.9h2.6l.8-1s.9.7,1.5,1.2c0,.1-.2.2-.3.2H65.9l-.1-.3h4.5Z"/><path class="cls-1" d="M12.65,112.6h1.2l.2,4a9.7,9.7,0,0,0,.1,1.7h0c.1-.6.1-1.1.2-1.7l.3-2.2h.9l.3,2.2c.1.6.1,1,.2,1.7h0v-1.7l.2-4h1.1l-.6,7.2h-1.4l-.3-2.5a6.6,6.6,0,0,1-.1-1.4h0c0,.4-.1.9-.1,1.4l-.3,2.5h-1.3Z"/><path class="cls-1" d="M17.75,118.4c0-1.2,1-1.8,2.6-2.1,0-.6-.3-1-.7-1a2.37,2.37,0,0,0-1.2.5l-.5-.9a3.86,3.86,0,0,1,2-.6c1.1,0,1.9.8,1.9,2.2v3.3h-1.1l-.1-.6h0a1.62,1.62,0,0,1-1.4.7A1.37,1.37,0,0,1,17.75,118.4Zm2.6-.1v-1.1c-.9.2-1.2.5-1.2,1.1,0,.4.2.6.5.6A1.87,1.87,0,0,0,20.35,118.3Z"/><path class="cls-1" d="M23.75,117.9v-4.5h-1.1v-1.1h2.5V118c0,.6.3.8.6.8a.55.55,0,0,0,.5-.2l.3,1.1a2.77,2.77,0,0,1-1.3.3C24.25,119.9,23.75,119.1,23.75,117.9Z"/><path class="cls-1" d="M27.55,112.3H29v4.3h0l1.3-2.2h1.5l-1.4,2.2,1.5,3.2h-1.4l-.9-2.2-.5.9v1.3h-1.4l-.1-7.5Z"/><path class="cls-1" d="M34.05,115.5h-1.6v-1.1h3v5.4h-1.4Zm-.3-2.8a.82.82,0,0,1,.9-.8.74.74,0,0,1,.8.8.79.79,0,0,1-.8.8A.82.82,0,0,1,33.75,112.7Z"/><path class="cls-1" d="M37.15,114.4h1.1l.1.7h0a1.84,1.84,0,0,1,1.4-.8c.9,0,1.3.7,1.3,1.9v3.7h-1.4v-3.5c0-.6-.1-.8-.5-.8s-.5.2-.7.6V120h-1.3v-5.6Z"/><path class="cls-1" d="M41.85,120.7a1.25,1.25,0,0,1,.6-1.1h0a1.05,1.05,0,0,1-.5-.9,1.1,1.1,0,0,1,.6-1h0a1.56,1.56,0,0,1-.6-1.4,1.76,1.76,0,0,1,1.8-1.9,1.27,1.27,0,0,1,.6.1h1.7v1.1h-.8a1.88,1.88,0,0,1,.2.8,1.64,1.64,0,0,1-1.6,1.8,1.27,1.27,0,0,1-.6-.1c-.1.1-.1.2-.1.4s.2.5.7.5h.6c1.1,0,1.7.4,1.7,1.4s-.9,1.8-2.4,1.8C42.75,122,41.85,121.6,41.85,120.7Zm3-.3c0-.4-.3-.5-.7-.5H44a1.08,1.08,0,0,1-.6-.1.73.73,0,0,0-.2.6q0,.6.9.6A.7.7,0,0,0,44.85,120.4Zm-.6-4.3c0-.7-.2-1-.5-1s-.5.3-.5,1,.2,1,.5,1S44.25,116.8,44.25,116.1Z"/><path class="cls-1" d="M53.25,115.5h-1.6v-1.1h3v5.4h-1.4Zm-.2-2.8a.82.82,0,0,1,.9-.8.74.74,0,0,1,.8.8.79.79,0,0,1-.8.8A.82.82,0,0,1,53.05,112.7Z"/><path class="cls-1" d="M56.45,114.4h1.1l.1.7h0a1.84,1.84,0,0,1,1.4-.8c.9,0,1.3.7,1.3,1.9v3.7H59v-3.5c0-.6-.1-.8-.5-.8s-.5.2-.7.6V120h-1.4l.1-5.6Z"/><path class="cls-1" d="M67.35,113.8h-1.5v-1.2h4.4v1.2h-1.5v6h-1.4Z"/><path class="cls-1" d="M70.85,118.4c0-1.2,1-1.8,2.6-2.1,0-.6-.3-1-.7-1a2.37,2.37,0,0,0-1.2.5l-.5-.9a3.86,3.86,0,0,1,2-.6c1.1,0,1.9.8,1.9,2.2v3.3h-1.1l-.1-.6h0a1.62,1.62,0,0,1-1.4.7A1.37,1.37,0,0,1,70.85,118.4Zm2.6-.1v-1.1c-.9.2-1.2.5-1.2,1.1,0,.4.2.6.5.6A1.87,1.87,0,0,0,73.45,118.3Z"/><path class="cls-1" d="M77.45,115.5h-1.6v-1.1h3v5.4h-1.4Zm-.3-2.8a.82.82,0,0,1,.9-.8.74.74,0,0,1,.8.8.79.79,0,0,1-.8.8A.82.82,0,0,1,77.15,112.7Z"/><path class="cls-1" d="M80.65,114.4h1.1l.1.6h0a1.36,1.36,0,0,1,1.1-.7c1,0,1.6.9,1.6,2.7,0,2-.8,2.9-1.7,2.9a1.38,1.38,0,0,1-.9-.5v2.3h-1.4l.1-7.3Zm2.5,2.6c0-1.1-.2-1.6-.6-1.6q-.3,0-.6.6v2.5c.2.3.3.3.5.3C82.85,118.7,83.15,118.3,83.15,117Z"/><path class="cls-1" d="M85.35,117.1c0-1.8,1.1-2.8,2.2-2.8,1.3,0,1.9,1.1,1.9,2.6v.7h-2.7c.1.9.5,1.3,1.1,1.3a1.61,1.61,0,0,0,.9-.3l.5.9a2.69,2.69,0,0,1-1.5.5A2.58,2.58,0,0,1,85.35,117.1Zm2.8-.6c0-.7-.2-1.2-.7-1.2s-.8.4-.8,1.2Z"/><path class="cls-1" d="M91.85,115.5h-1.6v-1.1h3v5.4h-1.4Zm-.2-2.8a.82.82,0,0,1,.9-.8.74.74,0,0,1,.8.8.79.79,0,0,1-.8.8A.82.82,0,0,1,91.65,112.7Z"/><path class="cls-1" d="M53,5A48,48,0,1,1,5,53,48,48,0,0,1,53,5m0-5a53,53,0,1,0,53,53A53,53,0,0,0,53,0Z"/><rect class="cls-1" x="57.4" y="90.9" width="25.2" height="1"/><polygon class="cls-1" points="82.7 90.9 57.4 90.9 57.4 91.9 82.7 91.9 82.7 90.9"/><path class="cls-1" d="M47.2,91.9H23.9v-1H47.8V91c.5.1.5.2.5.4a.47.47,0,0,1-.5.5h-.6Z"/><path class="cls-1" d="M45.1,90.9H23.9v1H47.8c.4,0,.5-.1.5-.5,0-.2,0-.4-.5-.4v-.1H45.1Z"/><rect class="cls-1" x="27.9" y="64.5" width="50.7" height="1"/><polygon class="cls-1" points="78.6 64.5 27.9 64.5 27.9 65.5 78.6 65.5 78.6 64.5"/><rect class="cls-1" x="52.33" y="46.97" width="1" height="58.4" transform="translate(-23.46 128.82) rotate(-89.87)"/><polygon class="cls-1" points="23.7 75.6 23.6 76.6 82.1 76.7 82.1 75.7 23.7 75.6"/><path class="cls-1" d="M18.5,78.9a6.74,6.74,0,0,1-3.9-1.3l.5-.8a5.6,5.6,0,0,0,5.1.8c5.5-2,9-12.5,9-12.7l1,.3c-.1.5-3.6,11.2-9.6,13.3A5.22,5.22,0,0,1,18.5,78.9Z"/><path class="cls-1" d="M29.3,64.9c0,.1-3.5,10.7-9,12.7a5.55,5.55,0,0,1-1.7.3,6.79,6.79,0,0,1-3.4-1.1l-.5.8a7.55,7.55,0,0,0,3.9,1.3,5.22,5.22,0,0,0,2.1-.4c6-2.1,9.5-12.8,9.6-13.3l-1-.3Z"/><path class="cls-1" d="M87.5,78.9a5.22,5.22,0,0,1-2.1-.4c-6-2.1-9.5-12.8-9.6-13.3l1-.3c0,.1,3.5,10.7,9,12.7a5.6,5.6,0,0,0,5.1-.8l.5.8A6.74,6.74,0,0,1,87.5,78.9Z"/><path class="cls-1" d="M76.7,64.9l-1,.3c.1.5,3.6,11.2,9.6,13.3a7.79,7.79,0,0,0,2.1.4,6.74,6.74,0,0,0,3.9-1.3l-.5-.8a6.5,6.5,0,0,1-3.4,1.1,4.67,4.67,0,0,1-1.7-.3c-5.5-2-8.9-12.6-9-12.7Z"/><rect class="cls-1" x="23.1" y="75.9" width="1" height="16.1"/><polygon class="cls-1" points="24.1 75.9 23.1 75.9 23.1 92 24.1 92 24.1 75.9"/><rect class="cls-1" x="81.7" y="75.9" width="1" height="15.1"/><polygon class="cls-1" points="82.7 75.9 81.7 75.9 81.7 90.9 82.7 90.9 82.7 75.9"/><path class="cls-1" d="M47.6,90.9h-1a5.8,5.8,0,0,1,5.8-5.8v1A4.87,4.87,0,0,0,47.6,90.9Z"/><path class="cls-1" d="M52.4,85.1a5.8,5.8,0,0,0-5.8,5.8h1a4.8,4.8,0,0,1,4.8-4.8v-1Z"/><path class="cls-1" d="M58.2,90.9h-1a4.8,4.8,0,0,0-4.8-4.8v-1A5.8,5.8,0,0,1,58.2,90.9Z"/><path class="cls-1" d="M52.4,85.1v1a4.8,4.8,0,0,1,4.8,4.8h1a5.8,5.8,0,0,0-5.8-5.8Z"/><path class="cls-1" d="M43.6,30a.8.8,0,1,1,.8-.8A.74.74,0,0,1,43.6,30Z"/><path class="cls-1" d="M43.6,28.8a.3.3,0,1,1-.3.3.32.32,0,0,1,.3-.3m0-1A1.4,1.4,0,1,0,45,29.2a1.37,1.37,0,0,0-1.4-1.4Z"/><path class="cls-1" d="M46.3,30a.8.8,0,1,1,.8-.8C47.2,29.7,46.9,30,46.3,30Z"/><path class="cls-1" d="M46.3,28.8a.3.3,0,1,1-.3.3.45.45,0,0,1,.3-.3m0-1a1.4,1.4,0,1,0,1.4,1.4,1.31,1.31,0,0,0-1.4-1.4Z"/><path class="cls-1" d="M43.6,35.6a.8.8,0,1,1,.8-.8A.79.79,0,0,1,43.6,35.6Z"/><path class="cls-1" d="M43.6,34.5a.3.3,0,1,1-.3.3.27.27,0,0,1,.3-.3m0-1.1A1.4,1.4,0,1,0,45,34.8a1.43,1.43,0,0,0-1.4-1.4Z"/><path class="cls-1" d="M46.3,35.6a.8.8,0,1,1,.8-.8C47.2,35.2,46.9,35.6,46.3,35.6Z"/><path class="cls-1" d="M46.3,34.5a.3.3,0,1,1-.3.3q.15-.3.3-.3m0-1.1a1.4,1.4,0,1,0,1.4,1.4,1.31,1.31,0,0,0-1.4-1.4Z"/><path class="cls-1" d="M46.3,44a.8.8,0,1,1,.8-.8C47.2,43.7,46.9,44,46.3,44Z"/><path class="cls-1" d="M46.3,42.8a.3.3,0,1,1-.3.3.45.45,0,0,1,.3-.3m0-1a1.4,1.4,0,1,0,1.4,1.4,1.31,1.31,0,0,0-1.4-1.4Z"/><path class="cls-1" d="M49.2,44a.8.8,0,1,1,.8-.8A.79.79,0,0,1,49.2,44Z"/><path class="cls-1" d="M49.2,42.8a.3.3,0,1,1-.3.3.45.45,0,0,1,.3-.3m0-1a1.4,1.4,0,1,0,1.4,1.4,1.37,1.37,0,0,0-1.4-1.4Z"/><path class="cls-1" d="M52,44a.8.8,0,0,1,0-1.6.86.86,0,0,1,.8.8A.79.79,0,0,1,52,44Z"/><path class="cls-1" d="M52,42.8a.3.3,0,1,1-.3.3.45.45,0,0,1,.3-.3m0-1a1.4,1.4,0,1,0,1.4,1.4A1.43,1.43,0,0,0,52,41.8Z"/><path class="cls-1" d="M46.3,38.4a.8.8,0,1,1,.8-.8C47.2,38,46.9,38.4,46.3,38.4Z"/><path class="cls-1" d="M46.3,37.3a.3.3,0,1,1-.3.3q.15-.3.3-.3m0-1.2a1.4,1.4,0,1,0,1.4,1.4,1.43,1.43,0,0,0-1.4-1.4Z"/><path class="cls-1" d="M49.2,38.4a.8.8,0,1,1,.8-.8A.86.86,0,0,1,49.2,38.4Z"/><path class="cls-1" d="M49.2,37.3a.3.3,0,1,1-.3.3c-.1-.2.2-.3.3-.3m0-1.2a1.4,1.4,0,1,0,1.4,1.4,1.51,1.51,0,0,0-1.4-1.4Z"/><path class="cls-1" d="M52,38.4a.8.8,0,1,1,0-1.6.8.8,0,1,1,0,1.6Z"/><path class="cls-1" d="M52,37.3a.3.3,0,1,1-.3.3.32.32,0,0,1,.3-.3m0-1.2a1.4,1.4,0,1,0,1.4,1.4A1.51,1.51,0,0,0,52,36.1Z"/><path class="cls-1" d="M54.8,38.4a.8.8,0,1,1,.8-.8C55.7,38,55.2,38.4,54.8,38.4Z"/><path class="cls-1" d="M54.8,37.3a.3.3,0,1,1-.3.3c0-.2,0-.3.3-.3m0-1.2a1.4,1.4,0,1,0,1.4,1.4,1.43,1.43,0,0,0-1.4-1.4Z"/><path class="cls-1" d="M57.5,38.4a.8.8,0,1,1,.8-.8C58.5,38,58.1,38.4,57.5,38.4Z"/><path class="cls-1" d="M57.5,37.3a.3.3,0,1,1-.3.3c.2-.2.2-.3.3-.3m0-1.2a1.4,1.4,0,1,0,1.4,1.4,1.36,1.36,0,0,0-1.4-1.4Z"/><path class="cls-1" d="M43.6,63.6a.8.8,0,1,1,.8-.8A.79.79,0,0,1,43.6,63.6Z"/><path class="cls-1" d="M43.6,62.5a.32.32,0,0,1,.3.3.45.45,0,0,1-.3.3.32.32,0,0,1-.3-.3.27.27,0,0,1,.3-.3m0-1.1A1.4,1.4,0,1,0,45,62.8a1.43,1.43,0,0,0-1.4-1.4Z"/><circle class="cls-1" cx="46.3" cy="62.8" r="0.8"/><path class="cls-1" d="M46.3,62.5a.32.32,0,0,1,.3.3.45.45,0,0,1-.3.3.32.32,0,0,1-.3-.3q.15-.3.3-.3m0-1.1a1.4,1.4,0,1,0,1.4,1.4,1.31,1.31,0,0,0-1.4-1.4Z"/><path class="cls-1" d="M49.2,60.8A.8.8,0,1,1,50,60,.79.79,0,0,1,49.2,60.8Z"/><path class="cls-1" d="M49.2,59.7a.3.3,0,1,1-.3.3.45.45,0,0,1,.3-.3m0-1.1A1.4,1.4,0,1,0,50.6,60a1.37,1.37,0,0,0-1.4-1.4Z"/><path class="cls-1" d="M49.2,58a.8.8,0,1,1,.8-.8A.79.79,0,0,1,49.2,58Z"/><path class="cls-1" d="M49.2,56.9a.3.3,0,1,1-.3.3c-.1-.1.2-.3.3-.3m0-1.1a1.4,1.4,0,1,0,1.4,1.4,1.37,1.37,0,0,0-1.4-1.4Z"/><path class="cls-1" d="M49.2,55.3a.8.8,0,1,1,.8-.8A1,1,0,0,1,49.2,55.3Z"/><path class="cls-1" d="M49.2,54.1a.3.3,0,1,1-.3.3c-.1-.1.2-.3.3-.3m0-1.2a1.4,1.4,0,1,0,1.4,1.4c.1-.7-.7-1.4-1.4-1.4Z"/><path class="cls-1" d="M63.2,63.6a.76.76,0,0,1-.8-.7.82.82,0,0,1,.7-1h.2a.76.76,0,0,1,.8.7c.1.2,0,.4-.1.7a.55.55,0,0,1-.5.3Z"/><path class="cls-1" d="M63.2,62.5a.22.22,0,0,1,.2.2c0,.1-.1.3-.2.3h-.1a.22.22,0,0,1-.2-.2q-.15-.15.3-.3h0m0-1.1h-.3a1.56,1.56,0,0,0-1.1,1.7,1.39,1.39,0,0,0,1.4,1.1h.3a1.56,1.56,0,0,0,1.1-1.7,1.39,1.39,0,0,0-1.4-1.1Z"/><path class="cls-1" d="M66,60.8a.8.8,0,1,1,.8-.8A.74.74,0,0,1,66,60.8Z"/><path class="cls-1" d="M66,59.7a.3.3,0,1,1-.3.3.27.27,0,0,1,.3-.3m0-1.1A1.4,1.4,0,1,0,67.4,60,1.37,1.37,0,0,0,66,58.6Z"/><path class="cls-1" d="M66,58a.8.8,0,1,1,.8-.8A.74.74,0,0,1,66,58Z"/><path class="cls-1" d="M66,56.9a.3.3,0,1,1-.3.3.32.32,0,0,1,.3-.3m0-1.1a1.4,1.4,0,1,0,1.4,1.4A1.37,1.37,0,0,0,66,55.8Z"/><path class="cls-1" d="M63.2,55.3a.75.75,0,0,1-.7-.5.82.82,0,0,1-.1-.7,1,1,0,0,1,.4-.5c.1-.1.2-.1.4-.1a.84.84,0,0,1,.7.4.82.82,0,0,1,.1.7,1,1,0,0,1-.4.5A.76.76,0,0,1,63.2,55.3Z"/><path class="cls-1" d="M63.2,54.1a.22.22,0,0,1,.2.2.14.14,0,0,1,0,.2s-.1.2-.2.2H63a.22.22,0,0,1-.2-.2c-.1-.2,0-.3.2-.4h.2m0-1.2a2.54,2.54,0,0,0-.7.2,1.43,1.43,0,0,0-.6,1.9,1.21,1.21,0,0,0,1.2.7,2.54,2.54,0,0,0,.7-.2,1.43,1.43,0,0,0,.6-1.9,1.64,1.64,0,0,0-1.2-.7Z"/><path class="cls-1" d="M57.5,52.4a.8.8,0,1,1,.8-.8C58.5,52,58.1,52.4,57.5,52.4Z"/><path class="cls-1" d="M57.5,51.3a.3.3,0,1,1-.3.3c.2-.1.2-.3.3-.3m0-1.1a1.4,1.4,0,1,0,1.4,1.4,1.26,1.26,0,0,0-1.4-1.4Z"/><path class="cls-1" d="M54.8,49.6a.8.8,0,1,1,.8-.8C55.7,49.2,55.2,49.6,54.8,49.6Z"/><path class="cls-1" d="M54.8,48.5a.3.3,0,1,1-.3.3c0-.2,0-.3.3-.3m0-1.1a1.4,1.4,0,1,0,1.4,1.4,1.43,1.43,0,0,0-1.4-1.4Z"/><path class="cls-1" d="M54.8,46.8a.8.8,0,1,1,.8-.8C55.7,46.5,55.2,46.8,54.8,46.8Z"/><path class="cls-1" d="M54.8,45.7a.3.3,0,1,1-.3.3c0-.2,0-.3.3-.3m0-1.1A1.4,1.4,0,1,0,56.2,46a1.43,1.43,0,0,0-1.4-1.4Z"/><path class="cls-1" d="M52,49.6A.8.8,0,0,1,52,48a.8.8,0,0,1,0,1.6Z"/><path class="cls-1" d="M52,48.5a.3.3,0,1,1-.3.3.32.32,0,0,1,.3-.3m0-1.1a1.4,1.4,0,1,0,1.4,1.4A1.43,1.43,0,0,0,52,47.4Z"/><circle class="cls-1" cx="52" cy="46" r="0.8"/><path class="cls-1" d="M52,45.7a.3.3,0,1,1-.3.3.32.32,0,0,1,.3-.3m0-1.1A1.4,1.4,0,1,0,53.4,46,1.51,1.51,0,0,0,52,44.6Z"/><path class="cls-1" d="M52,52.4a.8.8,0,1,1,0-1.6.8.8,0,1,1,0,1.6Z"/><path class="cls-1" d="M52,51.3a.3.3,0,1,1-.3.3.45.45,0,0,1,.3-.3m0-1.1a1.4,1.4,0,1,0,1.4,1.4A1.43,1.43,0,0,0,52,50.2Z"/><path class="cls-1" d="M60.3,55.3a.8.8,0,1,1,.8-.8C61.2,54.8,60.8,55.3,60.3,55.3Z"/><path class="cls-1" d="M60.3,54.1a.3.3,0,1,1-.3.3c.2-.2.2-.3.3-.3m0-1.2a1.4,1.4,0,1,0,1.4,1.4,1.36,1.36,0,0,0-1.4-1.4Z"/><circle class="cls-1" cx="60.3" cy="40.4" r="0.8"/><path class="cls-1" d="M60.3,40.1a.3.3,0,1,1-.3.3.45.45,0,0,1,.3-.3m0-1.2a1.4,1.4,0,1,0,1.4,1.4,1.43,1.43,0,0,0-1.4-1.4Z"/><path class="cls-1" d="M43.6,46.8a.8.8,0,1,1,.8-.8A.74.74,0,0,1,43.6,46.8Z"/><path class="cls-1" d="M43.6,45.7a.3.3,0,1,1-.3.3.27.27,0,0,1,.3-.3m0-1.1A1.4,1.4,0,1,0,45,46a1.43,1.43,0,0,0-1.4-1.4Z"/><path class="cls-1" d="M63.2,44a.8.8,0,1,1,.8-.8A.74.74,0,0,1,63.2,44Z"/><path class="cls-1" d="M63.2,42.8a.3.3,0,1,1-.3.3.45.45,0,0,1,.3-.3m0-1a1.4,1.4,0,1,0,1.4,1.4,1.37,1.37,0,0,0-1.4-1.4Z"/><path class="cls-1" d="M40.8,32.8A.79.79,0,0,1,40,32a.86.86,0,0,1,.8-.8.79.79,0,0,1,.8.8A.86.86,0,0,1,40.8,32.8Z"/><path class="cls-1" d="M40.8,31.7a.3.3,0,1,1-.3.3c0-.2,0-.3.3-.3m0-1.1A1.4,1.4,0,1,0,42.2,32a1.43,1.43,0,0,0-1.4-1.4Z"/><path class="cls-1" d="M43.6,32.8a.79.79,0,0,1-.8-.8.86.86,0,0,1,.8-.8.8.8,0,0,1,0,1.6Z"/><path class="cls-1" d="M43.6,31.7a.3.3,0,1,1-.3.3.27.27,0,0,1,.3-.3m0-1.1A1.4,1.4,0,1,0,45,32a1.43,1.43,0,0,0-1.4-1.4Z"/><circle class="cls-1" cx="46.3" cy="32" r="0.8"/><path class="cls-1" d="M46.3,31.7a.3.3,0,1,1-.3.3q.15-.3.3-.3m0-1.1A1.4,1.4,0,1,0,47.7,32a1.43,1.43,0,0,0-1.4-1.4Z"/><path class="cls-1" d="M49.2,32.8a.79.79,0,0,1-.8-.8.86.86,0,0,1,.8-.8.79.79,0,0,1,.8.8A.86.86,0,0,1,49.2,32.8Z"/><path class="cls-1" d="M49.2,31.7a.3.3,0,1,1-.3.3c-.1-.2.2-.3.3-.3m0-1.1A1.4,1.4,0,1,0,50.6,32a1.51,1.51,0,0,0-1.4-1.4Z"/><circle class="cls-1" cx="49.1" cy="32" r="0.7"/><circle class="cls-1" cx="46.4" cy="37.5" r="0.6"/><circle class="cls-1" cx="49.2" cy="37.5" r="0.6"/><ellipse class="cls-1" cx="52.2" cy="37.8" rx="0.8" ry="0.7"/><ellipse class="cls-1" cx="54.6" cy="37.8" rx="0.4" ry="0.7"/><ellipse class="cls-1" cx="57.5" cy="37.9" rx="0.7" ry="0.8"/><ellipse class="cls-1" cx="60.4" cy="40.6" rx="0.6" ry="0.7"/><circle class="cls-1" cx="63.4" cy="43.1" r="0.5"/><circle class="cls-1" cx="52.1" cy="40.4" r="1.3"/><circle class="cls-1" cx="49.2" cy="40.4" r="1.3"/><circle class="cls-1" cx="46.4" cy="40.4" r="1.3"/><ellipse class="cls-1" cx="52.1" cy="43.2" rx="0.7" ry="0.6"/><circle class="cls-1" cx="49.3" cy="43.2" r="0.7"/><circle class="cls-1" cx="46.4" cy="43.3" r="0.7"/><circle class="cls-1" cx="43.6" cy="46.2" r="0.7"/><ellipse class="cls-1" cx="52" cy="46.2" rx="0.6" ry="0.7"/><circle class="cls-1" cx="54.9" cy="46.3" r="0.7"/><ellipse class="cls-1" cx="54.85" cy="48.59" rx="0.6" ry="0.8" transform="matrix(0.58, -0.82, 0.82, 0.58, -16.5, 65.27)"/><ellipse class="cls-1" cx="52.1" cy="48.8" rx="0.7" ry="0.3"/><ellipse class="cls-1" cx="52.1" cy="51.6" rx="0.4" ry="0.8"/><circle class="cls-1" cx="57.5" cy="51.8" r="0.7"/><circle class="cls-1" cx="49.2" cy="54.6" r="0.6"/><circle class="cls-1" cx="49.2" cy="57.6" r="0.7"/><circle class="cls-1" cx="49.2" cy="60.2" r="0.7"/><circle class="cls-1" cx="46.3" cy="62.8" r="0.6"/><ellipse class="cls-1" cx="43.6" cy="62.8" rx="0.6" ry="0.7"/><ellipse class="cls-1" cx="60.3" cy="54.4" rx="0.8" ry="0.7"/><circle class="cls-1" cx="63.1" cy="54.4" r="0.7"/><ellipse class="cls-1" cx="66.1" cy="57.3" rx="0.7" ry="0.3"/><circle class="cls-1" cx="66" cy="60.2" r="0.8"/><circle class="cls-1" cx="62.9" cy="62.8" r="0.6"/></g></g></svg>