<svg xmlns="http://www.w3.org/2000/svg" viewBox="0 0 145.4 44.1"><defs><style>.cls-1{fill:#fff;}</style></defs><g id="圖層_2" data-name="圖層 2"><g id="圖層_1-2" data-name="圖層 1"><path d="M14.7,22.5c11.1,2.8,9.2,10.3,5.7,8.1a16.11,16.11,0,0,0-1.5-2.9c-4,.8-9.9,1.8-17,2.8a1.56,1.56,0,0,1-.8.6L0,27.4a3.63,3.63,0,0,0,1.1-.3C3.9,25.6,8,21,9.3,18.4l4.5,1.8c-.1.3-.5.5-1.1.5a40.7,40.7,0,0,1-9.6,6.8c3.7-.1,9.4-.2,15.4-.4a32.81,32.81,0,0,0-3.9-4.3ZM17.9,31l3.4,2.6a3,3,0,0,1-1.3.7v8.8a5.44,5.44,0,0,1-2.8.8h-.5V41.6H6.2V43c0,.3-1.5,1.1-2.9,1.1H2.8V31.5l3.6,1.4h9.9Zm-1.3,9.8V33.6H6.1v7.2Z"/><path d="M39,38l.1.3a102,102,0,0,1-10.3,5,1.34,1.34,0,0,1-.8.7l-1.6-4.1c1.4-.1,4-.5,7.2-1V28.2H27.4l-.2-.8h6.5V19.1l4.2.4c-.1.4-.2.7-1,.8V38.4Zm11.5,1.8c.9.4,1.1.8,1.1,1.3,0,1.4-1.3,2-5.6,2H43.6c-2.7,0-3.6-.7-3.6-3v-21l4.2.5c0,.4-.3.7-1,.8v7.1h3.7L48.3,25s1.6,1.8,2.4,2.8c-.1.3-.3.4-.7.4H43.2v11c0,.7.2.8,1.1.8h3.8a.75.75,0,0,0,.7-.4,28.3,28.3,0,0,0,1.3-3.9h.3Z"/><path d="M107.7,40.2c1.2.1,2.6.2,4.1.2,1.7,0,5.5,0,7.3-.1v.3c-1,.2-1.5,1.4-1.6,2.7h-5.8c-6.2,0-9.6-1.3-11.4-6.6A15.1,15.1,0,0,1,93.6,44l-.2-.2c3.5-3.5,4.8-8.7,5.1-12.8l4.3.7c-.1.4-.4.6-1,.7a16.15,16.15,0,0,1-1,3.6,7.2,7.2,0,0,0,3.9,3.6V29l4.2.4c-.1.4-.2.6-.9.7v3.4h3.8l1.9-2.3s2.1,1.5,3.4,2.6c-.1.3-.4.4-.8.4H108v6ZM104.4,28V23.7h-8l-.2-.8h8.2V18.5l4.3.4c-.1.4-.3.7-1,.8V23h3.6l1.8-2.2s2.1,1.5,3.3,2.6c-.1.3-.4.4-.8.4h-8v4.3h5.9l1.9-2.3s2.1,1.5,3.4,2.6c-.1.3-.4.4-.8.4H93.8l-.2-.8Z"/><path d="M134,40.2c1.2.1,2.6.2,4.1.2,1.7,0,5.5,0,7.3-.1v.3c-1,.2-1.5,1.4-1.6,2.7H138c-6.2,0-9.6-1.3-11.4-6.6a15.1,15.1,0,0,1-6.7,7.3l-.2-.2c3.5-3.5,4.8-8.7,5.1-12.8l4.3.7c-.1.4-.4.6-1,.7a16.15,16.15,0,0,1-1,3.6,7.2,7.2,0,0,0,3.9,3.6V29l4.2.4c-.1.4-.2.6-.9.7v3.4h3.8l1.9-2.3s2.1,1.5,3.4,2.6c-.1.3-.4.4-.8.4h-8.3v6ZM130.7,28V23.7h-7.9l-.2-.8h8.2V18.5l4.3.4c-.1.4-.3.7-1,.8V23h3.6l1.8-2.2s2.1,1.5,3.3,2.6c-.1.3-.4.4-.8.4h-8v4.3h5.9l1.9-2.3s2.1,1.5,3.4,2.6c-.1.3-.4.4-.8.4H120.2L120,28Z"/><path class="cls-1" d="M59.7,2.8a1,1,0,1,1,1-1A1,1,0,0,1,59.7,2.8Z"/><path d="M59.7,1.4a.43.43,0,0,1,.4.4.4.4,0,0,1-.8,0c.1-.3.2-.4.4-.4m0-1.4A1.75,1.75,0,0,0,58,1.7a1.7,1.7,0,1,0,3.4,0A1.69,1.69,0,0,0,59.7,0Z"/><path class="cls-1" d="M63.1,2.8a1,1,0,0,1,0-2,1.08,1.08,0,0,1,1,1A1,1,0,0,1,63.1,2.8Z"/><path d="M63.1,1.4a.43.43,0,0,1,.4.4.4.4,0,1,1-.8,0,.37.37,0,0,1,.4-.4m0-1.4a1.75,1.75,0,0,0-1.7,1.7,1.7,1.7,0,1,0,3.4,0A1.75,1.75,0,0,0,63.1,0Z"/><path class="cls-1" d="M59.7,9.5a1,1,0,1,1,1-1A.94.94,0,0,1,59.7,9.5Z"/><path d="M59.7,8.1a.4.4,0,1,1-.4.4c.1-.2.2-.4.4-.4m0-1.3A1.75,1.75,0,0,0,58,8.5a1.7,1.7,0,1,0,3.4,0,1.69,1.69,0,0,0-1.7-1.7Z"/><path class="cls-1" d="M63.1,9.5a1,1,0,1,1,0-2,1.08,1.08,0,0,1,1,1A.94.94,0,0,1,63.1,9.5Z"/><path d="M63.1,8.1a.4.4,0,1,1-.4.4.43.43,0,0,1,.4-.4m0-1.3a1.75,1.75,0,0,0-1.7,1.7,1.7,1.7,0,1,0,3.4,0,1.75,1.75,0,0,0-1.7-1.7Z"/><circle class="cls-1" cx="63.1" cy="15.3" r="1"/><path d="M63.1,14.9a.4.4,0,1,1-.4.4.43.43,0,0,1,.4-.4m0-1.3a1.7,1.7,0,1,0,1.7,1.7,1.69,1.69,0,0,0-1.7-1.7Z"/><path class="cls-1" d="M66.5,16.3a1,1,0,1,1,1-1A1.08,1.08,0,0,1,66.5,16.3Z"/><path d="M66.5,14.9a.4.4,0,1,1-.4.4.43.43,0,0,1,.4-.4m0-1.3a1.7,1.7,0,1,0,1.7,1.7,1.69,1.69,0,0,0-1.7-1.7Z"/><circle class="cls-1" cx="69.9" cy="15.3" r="1"/><path d="M69.9,14.9a.4.4,0,1,1-.4.4.43.43,0,0,1,.4-.4m0-1.3a1.7,1.7,0,1,0,1.7,1.7,1.69,1.69,0,0,0-1.7-1.7Z"/><path class="cls-1" d="M63.1,19.7a1,1,0,0,1,0-2,1.08,1.08,0,0,1,1,1A1,1,0,0,1,63.1,19.7Z"/><path d="M63.1,18.3a.4.4,0,1,1-.4.4.37.37,0,0,1,.4-.4m0-1.4a1.7,1.7,0,1,0,1.7,1.7,1.75,1.75,0,0,0-1.7-1.7Z"/><path class="cls-1" d="M66.5,19.7a1,1,0,1,1,1-1A1.08,1.08,0,0,1,66.5,19.7Z"/><path d="M66.5,18.3a.4.4,0,1,1-.4.4.37.37,0,0,1,.4-.4m0-1.4a1.7,1.7,0,1,0,1.7,1.7,1.75,1.75,0,0,0-1.7-1.7Z"/><path class="cls-1" d="M69.9,19.7a1,1,0,1,1,1-1A1.08,1.08,0,0,1,69.9,19.7Z"/><path d="M69.9,18.3a.4.4,0,1,1-.4.4.37.37,0,0,1,.4-.4m0-1.4a1.7,1.7,0,1,0,1.7,1.7,1.75,1.75,0,0,0-1.7-1.7Z"/><path class="cls-1" d="M63.1,12.9a1,1,0,0,1,0-2,1.08,1.08,0,0,1,1,1A1,1,0,0,1,63.1,12.9Z"/><path d="M63.1,11.5a.4.4,0,1,1-.4.4.43.43,0,0,1,.4-.4m0-1.3a1.7,1.7,0,1,0,1.7,1.7,1.69,1.69,0,0,0-1.7-1.7Z"/><path class="cls-1" d="M66.5,12.9a1,1,0,1,1,1-1A1.08,1.08,0,0,1,66.5,12.9Z"/><path d="M66.5,11.5a.4.4,0,1,1-.4.4.43.43,0,0,1,.4-.4m0-1.3a1.7,1.7,0,1,0,1.7,1.7,1.69,1.69,0,0,0-1.7-1.7Z"/><path class="cls-1" d="M69.9,12.9a1,1,0,1,1,1-1A1.08,1.08,0,0,1,69.9,12.9Z"/><path d="M69.9,11.5a.4.4,0,1,1-.4.4.43.43,0,0,1,.4-.4m0-1.3a1.7,1.7,0,1,0,1.7,1.7,1.69,1.69,0,0,0-1.7-1.7Z"/><path class="cls-1" d="M73.2,12.9a1,1,0,1,1,1-1A.94.94,0,0,1,73.2,12.9Z"/><path d="M73.2,11.5a.4.4,0,1,1-.4.4c.1-.2.2-.4.4-.4m0-1.3a1.7,1.7,0,1,0,1.7,1.7,1.63,1.63,0,0,0-1.7-1.7Z"/><path class="cls-1" d="M76.6,12.9a1,1,0,1,1,1-1A.94.94,0,0,1,76.6,12.9Z"/><path d="M76.6,11.5a.4.4,0,1,1-.4.4c.1-.2.2-.4.4-.4m0-1.3a1.7,1.7,0,1,0,1.7,1.7,1.63,1.63,0,0,0-1.7-1.7Z"/><path class="cls-1" d="M59.7,43.3a1,1,0,1,1,1-1A.94.94,0,0,1,59.7,43.3Z"/><path d="M59.7,42a.4.4,0,1,1-.4.4c.1-.3.2-.4.4-.4m0-1.4a1.7,1.7,0,1,0,1.7,1.7,1.69,1.69,0,0,0-1.7-1.7Z"/><circle class="cls-1" cx="63.1" cy="42.3" r="1"/><path d="M63.1,42a.4.4,0,1,1-.4.4.37.37,0,0,1,.4-.4m0-1.4a1.7,1.7,0,1,0,1.7,1.7,1.75,1.75,0,0,0-1.7-1.7Z"/><path class="cls-1" d="M66.5,40a1,1,0,1,1,1-1A1.08,1.08,0,0,1,66.5,40Z"/><path d="M66.5,38.6a.4.4,0,1,1-.4.4.37.37,0,0,1,.4-.4m0-1.4a1.7,1.7,0,1,0,1.7,1.7,1.75,1.75,0,0,0-1.7-1.7Z"/><path class="cls-1" d="M66.5,36.6a1,1,0,1,1,1-1A1.08,1.08,0,0,1,66.5,36.6Z"/><path d="M66.5,35.2a.4.4,0,1,1-.4.4.43.43,0,0,1,.4-.4m0-1.3a1.7,1.7,0,1,0,1.7,1.7,1.69,1.69,0,0,0-1.7-1.7Z"/><path class="cls-1" d="M66.5,33.2a1,1,0,1,1,1-1A1.08,1.08,0,0,1,66.5,33.2Z"/><path d="M66.5,31.8a.4.4,0,1,1-.4.4.43.43,0,0,1,.4-.4m0-1.3a1.7,1.7,0,1,0,1.7,1.7,1.69,1.69,0,0,0-1.7-1.7Z"/><path class="cls-1" d="M83.4,43.3a1,1,0,0,1-.2-2h.2a1,1,0,0,1,1,.8,1.13,1.13,0,0,1-.1.8.62.62,0,0,1-.6.4Z"/><path d="M83.4,42a.32.32,0,0,1,.3.3c0,.2-.1.4-.3.4h-.1a.32.32,0,0,1-.3-.3.37.37,0,0,1,.4-.4h0m0-1.4H83a1.67,1.67,0,0,0,.4,3.3h.4a1.7,1.7,0,0,0,1.3-2,1.83,1.83,0,0,0-1.7-1.3Z"/><path class="cls-1" d="M86.8,40a1,1,0,1,1,1-1A1.08,1.08,0,0,1,86.8,40Z"/><path d="M86.8,38.6a.4.4,0,1,1-.4.4.37.37,0,0,1,.4-.4m0-1.4a1.7,1.7,0,1,0,1.7,1.7,1.75,1.75,0,0,0-1.7-1.7Z"/><path class="cls-1" d="M86.8,36.6a1,1,0,1,1,1-1A1.08,1.08,0,0,1,86.8,36.6Z"/><path d="M86.8,35.2a.4.4,0,1,1-.4.4.43.43,0,0,1,.4-.4m0-1.3a1.7,1.7,0,1,0,1.7,1.7,1.69,1.69,0,0,0-1.7-1.7Z"/><path class="cls-1" d="M83.4,33.2a1,1,0,0,1-.9-.6,1.06,1.06,0,0,1-.1-.8,1,1,0,0,1,.5-.6.75.75,0,0,1,.5-.1,1.05,1.05,0,0,1,.9.5,1.06,1.06,0,0,1,.1.8,1,1,0,0,1-.5.6A.55.55,0,0,1,83.4,33.2Z"/><path d="M83.4,31.8c.1,0,.2.1.3.2s0,.2,0,.3a.22.22,0,0,1-.2.2h-.2c-.1,0-.2-.1-.3-.2a.37.37,0,0,1,.2-.5h.2m0-1.3a2.35,2.35,0,0,0-.8.2,1.76,1.76,0,0,0-.7,2.3,1.65,1.65,0,0,0,1.5.9,2.35,2.35,0,0,0,.8-.2,1.76,1.76,0,0,0,.7-2.3,1.65,1.65,0,0,0-1.5-.9Z"/><path class="cls-1" d="M76.6,29.8a1,1,0,1,1,1-1C77.7,29.4,77.2,29.8,76.6,29.8Z"/><path d="M76.6,28.4a.4.4,0,1,1-.4.4.43.43,0,0,1,.4-.4m0-1.3a1.7,1.7,0,1,0,1.7,1.7,1.69,1.69,0,0,0-1.7-1.7Z"/><path class="cls-1" d="M73.2,26.4a1,1,0,1,1,1-1C74.3,26,73.8,26.4,73.2,26.4Z"/><path d="M73.2,25a.4.4,0,1,1-.4.4.43.43,0,0,1,.4-.4m0-1.3a1.7,1.7,0,1,0,1.7,1.7,1.69,1.69,0,0,0-1.7-1.7Z"/><path class="cls-1" d="M73.2,23a1,1,0,1,1,1-1C74.3,22.6,73.8,23,73.2,23Z"/><path d="M73.2,21.7a.4.4,0,1,1-.4.4c.1-.3.2-.4.4-.4m0-1.4A1.7,1.7,0,1,0,74.9,22a1.69,1.69,0,0,0-1.7-1.7Z"/><path class="cls-1" d="M69.9,26.4a1,1,0,1,1,1-1A1,1,0,0,1,69.9,26.4Z"/><path d="M69.9,25a.4.4,0,1,1-.4.4.43.43,0,0,1,.4-.4m0-1.3a1.7,1.7,0,1,0,1.7,1.7,1.75,1.75,0,0,0-1.7-1.7Z"/><circle class="cls-1" cx="69.9" cy="22" r="1"/><path d="M69.9,21.7a.4.4,0,1,1-.4.4.37.37,0,0,1,.4-.4m0-1.4A1.7,1.7,0,1,0,71.6,22a1.75,1.75,0,0,0-1.7-1.7Z"/><path class="cls-1" d="M69.9,29.8a1,1,0,1,1,1-1A1,1,0,0,1,69.9,29.8Z"/><path d="M69.9,28.4a.4.4,0,1,1-.4.4.43.43,0,0,1,.4-.4m0-1.3a1.7,1.7,0,1,0,1.7,1.7,1.75,1.75,0,0,0-1.7-1.7Z"/><path class="cls-1" d="M80,33.2a1,1,0,1,1,1-1A1,1,0,0,1,80,33.2Z"/><path d="M80,31.8a.4.4,0,1,1-.4.4c.1-.2.2-.4.4-.4m0-1.3a1.7,1.7,0,1,0,1.7,1.7A1.69,1.69,0,0,0,80,30.5Z"/><circle class="cls-1" cx="80" cy="15.3" r="1"/><path d="M80,14.9a.4.4,0,1,1-.4.4c.1-.2.2-.4.4-.4m0-1.3a1.7,1.7,0,1,0,1.7,1.7A1.69,1.69,0,0,0,80,13.6Z"/><path class="cls-1" d="M59.7,23a1,1,0,1,1,1-1A.94.94,0,0,1,59.7,23Z"/><path d="M59.7,21.7a.4.4,0,1,1-.4.4c.1-.3.2-.4.4-.4m0-1.4A1.7,1.7,0,1,0,61.4,22a1.69,1.69,0,0,0-1.7-1.7Z"/><path class="cls-1" d="M83.4,19.7a1,1,0,1,1,1-1A1,1,0,0,1,83.4,19.7Z"/><path d="M83.4,18.3a.4.4,0,1,1-.4.4.37.37,0,0,1,.4-.4m0-1.4a1.7,1.7,0,1,0,1.7,1.7,1.75,1.75,0,0,0-1.7-1.7Z"/><path class="cls-1" d="M56.3,6.1a1,1,0,0,1-1-1,1.08,1.08,0,0,1,1-1,1,1,0,0,1,0,2Z"/><path d="M56.3,4.8a.43.43,0,0,1,.4.4.4.4,0,0,1-.8,0c.1-.3.2-.4.4-.4m0-1.4a1.75,1.75,0,0,0-1.7,1.7,1.7,1.7,0,0,0,3.4,0,1.69,1.69,0,0,0-1.7-1.7Z"/><path class="cls-1" d="M59.7,6.1a1,1,0,0,1-1-1,1.08,1.08,0,0,1,1-1,1,1,0,0,1,0,2Z"/><path d="M59.7,4.8a.43.43,0,0,1,.4.4.4.4,0,1,1-.8,0c.1-.3.2-.4.4-.4m0-1.4A1.75,1.75,0,0,0,58,5.1a1.7,1.7,0,1,0,3.4,0,1.69,1.69,0,0,0-1.7-1.7Z"/><circle class="cls-1" cx="63.1" cy="5.1" r="1"/><path d="M63.1,4.8a.43.43,0,0,1,.4.4.4.4,0,1,1-.8,0,.37.37,0,0,1,.4-.4m0-1.4a1.75,1.75,0,0,0-1.7,1.7,1.7,1.7,0,1,0,3.4,0,1.75,1.75,0,0,0-1.7-1.7Z"/><path class="cls-1" d="M66.5,6.1a1,1,0,0,1-1-1,1.08,1.08,0,0,1,1-1,1,1,0,0,1,1,1A1.08,1.08,0,0,1,66.5,6.1Z"/><path d="M66.5,4.8a.43.43,0,0,1,.4.4.4.4,0,0,1-.8,0,.37.37,0,0,1,.4-.4m0-1.4a1.75,1.75,0,0,0-1.7,1.7,1.7,1.7,0,1,0,3.4,0,1.75,1.75,0,0,0-1.7-1.7Z"/></g></g></svg>