<svg xmlns="http://www.w3.org/2000/svg" viewBox="0 0 145.4 44"><defs><style>.cls-1{fill:#fff;}.cls-2{stroke:#000;stroke-miterlimit:10;stroke-width:0.35px;}</style></defs><g id="圖層_2" data-name="圖層 2"><g id="圖層_1-2" data-name="圖層 1"><path d="M14.7,22.4c11.1,2.8,9.2,10.3,5.7,8.1a16.11,16.11,0,0,0-1.5-2.9c-4,.8-9.9,1.8-17,2.8a1.56,1.56,0,0,1-.8.6L0,27.3A3.63,3.63,0,0,0,1.1,27c2.8-1.5,6.9-6.1,8.2-8.7l4.5,1.8c-.1.3-.5.5-1.1.5a40.7,40.7,0,0,1-9.6,6.8c3.7-.1,9.4-.2,15.4-.4a32.81,32.81,0,0,0-3.9-4.3Zm3.2,8.5,3.4,2.6a3,3,0,0,1-1.3.7V43a5.44,5.44,0,0,1-2.8.8h-.5V41.5H6.2v1.4c0,.3-1.5,1.1-2.9,1.1H2.8V31.4l3.6,1.4h9.9Zm-1.3,9.8V33.5H6.1v7.2Z"/><path d="M39,37.9l.1.3a102,102,0,0,1-10.3,5,1.34,1.34,0,0,1-.8.7l-1.6-4.1c1.4-.1,4-.5,7.2-1V28.1H27.4l-.2-.8h6.5V19l4.2.4c-.1.4-.2.7-1,.8V38.3Zm11.5,1.8c.9.4,1.1.8,1.1,1.3,0,1.4-1.3,2-5.6,2H43.6c-2.7,0-3.6-.7-3.6-3V19l4.2.5c0,.4-.3.7-1,.8v7.1h3.7l1.4-2.5s1.6,1.8,2.4,2.8c-.1.3-.3.4-.7.4H43.2v11c0,.7.2.8,1.1.8h3.8a.75.75,0,0,0,.7-.4,28.3,28.3,0,0,0,1.3-3.9h.3Z"/><path d="M107.7,40.1c1.2.1,2.6.2,4.1.2,1.7,0,5.5,0,7.3-.1v.3c-1,.2-1.5,1.4-1.6,2.7h-5.8c-6.2,0-9.6-1.3-11.4-6.6a15.1,15.1,0,0,1-6.7,7.3l-.2-.2c3.5-3.5,4.8-8.7,5.1-12.8l4.3.7c-.1.4-.4.6-1,.7a16.15,16.15,0,0,1-1,3.6,7.2,7.2,0,0,0,3.9,3.6V28.9l4.2.4c-.1.4-.2.6-.9.7v3.4h3.8l1.9-2.3s2.1,1.5,3.4,2.6c-.1.3-.4.4-.8.4H108v6Zm-3.3-12.2V23.6h-8l-.2-.8h8.2V18.4l4.3.4c-.1.4-.3.7-1,.8v3.3h3.6l1.8-2.2s2.1,1.5,3.3,2.6c-.1.3-.4.4-.8.4h-8V28h5.9l1.9-2.3s2.1,1.5,3.4,2.6c-.1.3-.4.4-.8.4H93.8l-.2-.8Z"/><path d="M134,40.1c1.2.1,2.6.2,4.1.2,1.7,0,5.5,0,7.3-.1v.3c-1,.2-1.5,1.4-1.6,2.7H138c-6.2,0-9.6-1.3-11.4-6.6a15.1,15.1,0,0,1-6.7,7.3l-.2-.2c3.5-3.5,4.8-8.7,5.1-12.8l4.3.7c-.1.4-.4.6-1,.7a16.15,16.15,0,0,1-1,3.6,7.2,7.2,0,0,0,3.9,3.6V28.9l4.2.4c-.1.4-.2.6-.9.7v3.4h3.8l1.9-2.3s2.1,1.5,3.4,2.6c-.1.3-.4.4-.8.4h-8.3v6Zm-3.3-12.2V23.6h-7.9l-.2-.8h8.2V18.4l4.3.4c-.1.4-.3.7-1,.8v3.3h3.6l1.8-2.2s2.1,1.5,3.3,2.6c-.1.3-.4.4-.8.4h-8V28h5.9l1.9-2.3s2.1,1.5,3.4,2.6c-.1.3-.4.4-.8.4H120.2l-.2-.8Z"/><path class="cls-1" d="M60.85,2.7a1,1,0,1,1,1-1A.94.94,0,0,1,60.85,2.7Z"/><path d="M60.85,1.3a.43.43,0,0,1,.4.4.4.4,0,1,1-.8,0,.43.43,0,0,1,.4-.4m0-1.3a1.75,1.75,0,0,0-1.7,1.7,1.7,1.7,0,1,0,3.4,0A1.69,1.69,0,0,0,60.85,0Z"/><path class="cls-1" d="M64.25,2.7a1,1,0,1,1,1-1A.94.94,0,0,1,64.25,2.7Z"/><path d="M64.25,1.3a.43.43,0,0,1,.4.4.4.4,0,0,1-.8,0,.43.43,0,0,1,.4-.4m0-1.3a1.75,1.75,0,0,0-1.7,1.7,1.7,1.7,0,1,0,3.4,0A1.75,1.75,0,0,0,64.25,0Z"/><path class="cls-1" d="M60.85,9.5a1,1,0,1,1,1-1A1,1,0,0,1,60.85,9.5Z"/><path d="M60.85,8.1a.4.4,0,1,1-.4.4c.1-.2.2-.4.4-.4m0-1.3a1.75,1.75,0,0,0-1.7,1.7,1.7,1.7,0,1,0,3.4,0,1.63,1.63,0,0,0-1.7-1.7Z"/><path class="cls-1" d="M64.25,9.5a1,1,0,1,1,1-1A1,1,0,0,1,64.25,9.5Z"/><path d="M64.25,8.1a.4.4,0,1,1-.4.4.43.43,0,0,1,.4-.4m0-1.3a1.75,1.75,0,0,0-1.7,1.7,1.7,1.7,0,1,0,3.4,0,1.69,1.69,0,0,0-1.7-1.7Z"/><path class="cls-1" d="M64.25,19.6a1,1,0,1,1,1-1A.94.94,0,0,1,64.25,19.6Z"/><path d="M64.25,18.2a.4.4,0,1,1-.4.4.43.43,0,0,1,.4-.4m0-1.3A1.7,1.7,0,1,0,66,18.6a1.75,1.75,0,0,0-1.7-1.7Z"/><path class="cls-1" d="M67.65,19.6a1,1,0,1,1,1-1A1,1,0,0,1,67.65,19.6Z"/><path d="M67.65,18.2a.4.4,0,1,1-.4.4.43.43,0,0,1,.4-.4m0-1.3a1.7,1.7,0,1,0,1.7,1.7,1.69,1.69,0,0,0-1.7-1.7Z"/><path class="cls-1" d="M71.05,19.6a1,1,0,0,1,0-2,1.08,1.08,0,0,1,1,1A1,1,0,0,1,71.05,19.6Z"/><path d="M71.05,18.2a.4.4,0,1,1-.4.4.43.43,0,0,1,.4-.4m0-1.3a1.7,1.7,0,1,0,1.7,1.7,1.75,1.75,0,0,0-1.7-1.7Z"/><path class="cls-1" d="M64.25,12.9a1,1,0,1,1,1-1A1,1,0,0,1,64.25,12.9Z"/><path d="M64.25,11.5a.4.4,0,1,1-.4.4.37.37,0,0,1,.4-.4m0-1.4A1.7,1.7,0,1,0,66,11.8a1.75,1.75,0,0,0-1.7-1.7Z"/><path class="cls-1" d="M67.65,12.9a1,1,0,1,1,1-1A1.08,1.08,0,0,1,67.65,12.9Z"/><path d="M67.65,11.5a.4.4,0,1,1-.4.4.37.37,0,0,1,.4-.4m0-1.4a1.7,1.7,0,1,0,1.7,1.7,1.75,1.75,0,0,0-1.7-1.7Z"/><path class="cls-1" d="M71.05,12.9a1,1,0,0,1,0-2,1.08,1.08,0,0,1,1,1A1.08,1.08,0,0,1,71.05,12.9Z"/><path d="M71.05,11.5a.4.4,0,1,1-.4.4.37.37,0,0,1,.4-.4m0-1.4a1.7,1.7,0,1,0,1.7,1.7,1.75,1.75,0,0,0-1.7-1.7Z"/><path class="cls-1" d="M74.45,12.9a1,1,0,1,1,1-1A1.08,1.08,0,0,1,74.45,12.9Z"/><path d="M74.45,11.5a.4.4,0,1,1-.4.4c0-.3.1-.4.4-.4m0-1.4a1.7,1.7,0,1,0,1.7,1.7,1.69,1.69,0,0,0-1.7-1.7Z"/><path class="cls-1" d="M77.75,12.9a1,1,0,1,1,1-1C78.85,12.4,78.45,12.9,77.75,12.9Z"/><path d="M77.75,11.5a.4.4,0,1,1-.4.4c.1-.3.2-.4.4-.4m0-1.4a1.7,1.7,0,1,0,1.7,1.7,1.69,1.69,0,0,0-1.7-1.7Z"/><path class="cls-1" d="M60.85,43.3a1,1,0,1,1,1-1A1,1,0,0,1,60.85,43.3Z"/><path d="M60.85,41.9a.4.4,0,1,1-.4.4c.1-.2.2-.4.4-.4m0-1.3a1.7,1.7,0,1,0,1.7,1.7,1.63,1.63,0,0,0-1.7-1.7Z"/><circle class="cls-1" cx="64.25" cy="42.3" r="1"/><path d="M64.25,41.9a.4.4,0,1,1-.4.4.43.43,0,0,1,.4-.4m0-1.3A1.7,1.7,0,1,0,66,42.3a1.69,1.69,0,0,0-1.7-1.7Z"/><path class="cls-1" d="M67.65,39.9a1,1,0,1,1,1-1A1,1,0,0,1,67.65,39.9Z"/><path d="M67.65,38.5a.4.4,0,1,1-.4.4.43.43,0,0,1,.4-.4m0-1.3a1.7,1.7,0,1,0,1.7,1.7,1.69,1.69,0,0,0-1.7-1.7Z"/><path class="cls-1" d="M67.65,36.5a1,1,0,1,1,1-1A1,1,0,0,1,67.65,36.5Z"/><path d="M67.65,35.2a.4.4,0,1,1-.4.4.43.43,0,0,1,.4-.4m0-1.4a1.7,1.7,0,1,0,1.7,1.7,1.69,1.69,0,0,0-1.7-1.7Z"/><path class="cls-1" d="M67.65,33.2a1,1,0,1,1,1-1A1.08,1.08,0,0,1,67.65,33.2Z"/><path d="M67.65,31.8a.4.4,0,1,1-.4.4.43.43,0,0,1,.4-.4m0-1.4a1.7,1.7,0,1,0,1.7,1.7,1.69,1.69,0,0,0-1.7-1.7Z"/><path class="cls-1" d="M84.55,43.3a1,1,0,0,1-.2-2h.2a1,1,0,0,1,1,.8,1.13,1.13,0,0,1-.1.8.82.82,0,0,1-.6.4Z"/><path d="M84.55,41.9a.32.32,0,0,1,.3.3c0,.2-.1.4-.3.4h-.1a.32.32,0,0,1-.3-.3c0-.1.1-.3.4-.4h0m0-1.3h-.4a1.67,1.67,0,0,0,.4,3.3H85a1.7,1.7,0,0,0,1.3-2,1.64,1.64,0,0,0-1.7-1.3Z"/><path class="cls-1" d="M88,39.9a1,1,0,1,1,1-1A1,1,0,0,1,88,39.9Z"/><path d="M88,38.5a.4.4,0,1,1-.4.4.43.43,0,0,1,.4-.4m0-1.3a1.7,1.7,0,1,0,1.7,1.7A1.75,1.75,0,0,0,88,37.2Z"/><path class="cls-1" d="M88,36.5a1,1,0,1,1,1-1A1,1,0,0,1,88,36.5Z"/><path d="M88,35.2a.4.4,0,1,1-.4.4.43.43,0,0,1,.4-.4m0-1.4a1.7,1.7,0,1,0,1.7,1.7A1.75,1.75,0,0,0,88,33.8Z"/><path class="cls-1" d="M84.55,33.2a1,1,0,0,1-.9-.6,1.06,1.06,0,0,1-.1-.8,1,1,0,0,1,.5-.6.75.75,0,0,1,.5-.1,1.05,1.05,0,0,1,.9.5,1.06,1.06,0,0,1,.1.8,1,1,0,0,1-.5.6C84.85,33.1,84.75,33.2,84.55,33.2Z"/><path d="M84.55,31.8c.1,0,.2.1.3.2s0,.2,0,.3a.22.22,0,0,1-.2.2h-.2c-.1,0-.2-.1-.3-.2a.37.37,0,0,1,.2-.5h.2m0-1.4a2.35,2.35,0,0,0-.8.2,1.76,1.76,0,0,0-.7,2.3,1.65,1.65,0,0,0,1.5.9,2.35,2.35,0,0,0,.8-.2,1.76,1.76,0,0,0,.7-2.3,1.86,1.86,0,0,0-1.5-.9Z"/><path class="cls-1" d="M77.75,29.8a1,1,0,1,1,1-1C78.85,29.3,78.45,29.8,77.75,29.8Z"/><path d="M77.75,28.4a.4.4,0,1,1-.4.4c.1-.2.2-.4.4-.4m0-1.3a1.7,1.7,0,1,0,1.7,1.7,1.63,1.63,0,0,0-1.7-1.7Z"/><path class="cls-1" d="M74.45,26.4a1,1,0,1,1,1-1A1.08,1.08,0,0,1,74.45,26.4Z"/><path d="M74.45,25a.4.4,0,1,1-.4.4.37.37,0,0,1,.4-.4m0-1.3a1.7,1.7,0,1,0,1.7,1.7,1.69,1.69,0,0,0-1.7-1.7Z"/><path class="cls-1" d="M74.45,23a1,1,0,1,1,1-1A1,1,0,0,1,74.45,23Z"/><path d="M74.45,21.6a.4.4,0,1,1-.4.4.37.37,0,0,1,.4-.4m0-1.3a1.7,1.7,0,1,0,1.7,1.7,1.69,1.69,0,0,0-1.7-1.7Z"/><path class="cls-1" d="M71.05,26.4a1,1,0,0,1,0-2,1,1,0,0,1,0,2Z"/><path d="M71.05,25a.4.4,0,1,1-.4.4.43.43,0,0,1,.4-.4m0-1.3a1.7,1.7,0,1,0,1.7,1.7,1.69,1.69,0,0,0-1.7-1.7Z"/><circle class="cls-1" cx="71.05" cy="22" r="1"/><path d="M71.05,21.6a.4.4,0,1,1-.4.4.43.43,0,0,1,.4-.4m0-1.3a1.7,1.7,0,1,0,1.7,1.7,1.75,1.75,0,0,0-1.7-1.7Z"/><path class="cls-1" d="M71.05,29.8a1,1,0,0,1,0-2,1,1,0,0,1,0,2Z"/><path d="M71.05,28.4a.4.4,0,1,1-.4.4.43.43,0,0,1,.4-.4m0-1.3a1.7,1.7,0,1,0,1.7,1.7,1.69,1.69,0,0,0-1.7-1.7Z"/><path class="cls-1" d="M81.15,33.2a1,1,0,1,1,1-1A1,1,0,0,1,81.15,33.2Z"/><path d="M81.15,31.8a.4.4,0,1,1-.4.4c.1-.3.2-.4.4-.4m0-1.4a1.7,1.7,0,1,0,1.7,1.7,1.75,1.75,0,0,0-1.7-1.7Z"/><circle class="cls-1" cx="81.15" cy="15.2" r="1"/><path d="M81.15,14.9a.4.4,0,1,1-.4.4.43.43,0,0,1,.4-.4m0-1.4a1.7,1.7,0,1,0,1.7,1.7,1.75,1.75,0,0,0-1.7-1.7Z"/><path class="cls-1" d="M60.85,23a1,1,0,1,1,1-1A.94.94,0,0,1,60.85,23Z"/><path d="M60.85,21.6a.4.4,0,1,1-.4.4c.1-.2.2-.4.4-.4m0-1.3a1.7,1.7,0,1,0,1.7,1.7,1.69,1.69,0,0,0-1.7-1.7Z"/><path class="cls-1" d="M84.55,19.6a1,1,0,1,1,1-1A.94.94,0,0,1,84.55,19.6Z"/><path d="M84.55,18.2a.4.4,0,1,1-.4.4c0-.2.3-.4.4-.4m0-1.3a1.7,1.7,0,1,0,1.7,1.7,1.75,1.75,0,0,0-1.7-1.7Z"/><path class="cls-1" d="M57.45,6.1a1,1,0,0,1-1-1,1.08,1.08,0,0,1,1-1,1,1,0,0,1,0,2Z"/><path d="M57.45,4.7a.43.43,0,0,1,.4.4.4.4,0,0,1-.8,0c.1-.2.2-.4.4-.4m0-1.3a1.75,1.75,0,0,0-1.7,1.7,1.7,1.7,0,1,0,3.4,0,1.69,1.69,0,0,0-1.7-1.7Z"/><path class="cls-1" d="M60.85,6.1a1,1,0,0,1-1-1,1.08,1.08,0,0,1,1-1,1,1,0,0,1,0,2Z"/><path d="M60.85,4.7a.43.43,0,0,1,.4.4.4.4,0,0,1-.8,0c.1-.2.2-.4.4-.4m0-1.3a1.75,1.75,0,0,0-1.7,1.7,1.7,1.7,0,1,0,3.4,0,1.69,1.69,0,0,0-1.7-1.7Z"/><circle class="cls-1" cx="64.25" cy="5.1" r="1"/><path d="M64.25,4.7a.43.43,0,0,1,.4.4.4.4,0,0,1-.8,0,.43.43,0,0,1,.4-.4m0-1.3a1.75,1.75,0,0,0-1.7,1.7,1.7,1.7,0,1,0,3.4,0,1.75,1.75,0,0,0-1.7-1.7Z"/><path class="cls-1" d="M67.65,6.1a1,1,0,0,1-1-1,1.08,1.08,0,0,1,1-1,1,1,0,0,1,1,1A1.08,1.08,0,0,1,67.65,6.1Z"/><path d="M67.65,4.7a.43.43,0,0,1,.4.4.4.4,0,1,1-.8,0,.43.43,0,0,1,.4-.4m0-1.3A1.75,1.75,0,0,0,66,5.1a1.7,1.7,0,1,0,3.4,0,1.75,1.75,0,0,0-1.7-1.7Z"/><circle class="cls-2" cx="60.95" cy="1.7" r="0.7"/><circle class="cls-2" cx="64.65" cy="1.9" r="1"/><circle class="cls-2" cx="64.25" cy="5.1" r="1"/><circle class="cls-2" cx="60.95" cy="5.2" r="0.7"/><ellipse class="cls-2" cx="57.45" cy="5" rx="1" ry="0.5"/><ellipse class="cls-2" cx="60.95" cy="8.7" rx="0.7" ry="0.9"/><ellipse class="cls-2" cx="64.25" cy="8.7" rx="0.7" ry="0.9"/><circle cx="67.55" cy="5.1" r="0.8"/><circle cx="64.35" cy="11.8" r="0.7"/><circle cx="67.75" cy="11.8" r="0.7"/><ellipse cx="71.35" cy="12.1" rx="1" ry="0.8"/><ellipse cx="74.25" cy="12.1" rx="0.5" ry="0.8"/><ellipse cx="77.75" cy="12.3" rx="0.8" ry="1"/><ellipse cx="81.25" cy="15.5" rx="0.7" ry="0.9"/><circle cx="84.85" cy="18.5" r="0.6"/><circle cx="71.15" cy="15.2" r="1.6"/><circle cx="67.75" cy="15.2" r="1.6"/><circle cx="64.35" cy="15.2" r="1.6"/><ellipse cx="71.15" cy="18.6" rx="0.8" ry="0.7"/><circle cx="67.85" cy="18.6" r="0.8"/><circle cx="64.35" cy="18.7" r="0.8"/><ellipse cx="60.95" cy="22.3" rx="0.8" ry="0.9"/><ellipse cx="71.05" cy="22.3" rx="0.7" ry="0.9"/><circle cx="74.55" cy="22.4" r="0.8"/><ellipse cx="74.51" cy="25.19" rx="0.7" ry="1" transform="matrix(0.58, -0.82, 0.82, 0.58, 10.89, 71.44)"/><ellipse cx="71.15" cy="25.4" rx="0.9" ry="0.4"/><ellipse cx="71.25" cy="28.8" rx="0.5" ry="1"/><circle cx="77.75" cy="29" r="0.8"/><circle cx="67.65" cy="32.4" r="0.7"/><circle cx="67.65" cy="36" r="0.8"/><circle cx="67.75" cy="39.2" r="0.9"/><circle cx="64.25" cy="42.3" r="0.7"/><ellipse cx="60.95" cy="42.3" rx="0.7" ry="0.9"/><ellipse cx="81.15" cy="32.2" rx="1" ry="0.9"/><circle cx="84.45" cy="32.2" r="0.9"/><ellipse cx="88.15" cy="35.6" rx="0.8" ry="0.4"/><circle cx="87.95" cy="39.1" r="1"/><circle cx="84.25" cy="42.3" r="0.7"/></g></g></svg>